<?xml version="1.0" standalone="no"?>
<!DOCTYPE svg PUBLIC "-//W3C//DTD SVG 20010904//EN"
 "http://www.w3.org/TR/2001/REC-SVG-20010904/DTD/svg10.dtd">
<svg version="1.0" xmlns="http://www.w3.org/2000/svg"
 width="800.000000pt" height="800.000000pt" viewBox="0 0 800.000000 800.000000"
 preserveAspectRatio="xMidYMid meet">
<metadata>
Created by potrace 1.14, written by Peter Selinger 2001-2017
</metadata>
<g transform="translate(0.000000,800.000000) scale(0.100000,-0.100000)"
fill="#000000" stroke="none">
<path d="M6250 6230 c0 -4 -12 -6 -27 -5 -25 1 -48 -2 -143 -21 -41 -8 -137
-50 -198 -85 -85 -51 -191 -161 -231 -243 -60 -123 -62 -171 -4 -73 67 112
204 231 334 291 214 98 422 78 613 -58 148 -105 210 -213 225 -386 4 -52 9
-87 10 -77 1 18 9 20 85 18 115 -3 235 -46 304 -108 79 -70 88 -163 28 -286
-70 -145 -203 -240 -395 -283 -14 -3 -91 -7 -171 -8 -143 -2 -182 -10 -194
-41 -2 -6 -52 -80 -111 -165 -59 -85 -137 -198 -173 -250 -36 -52 -74 -105
-84 -116 -24 -27 -9 -40 24 -23 42 22 98 89 200 239 36 52 80 115 97 140 17
25 50 72 73 105 23 33 42 61 43 63 1 1 58 4 126 7 68 2 138 7 154 10 91 16
138 31 213 66 194 90 318 288 282 451 -28 124 -128 203 -295 233 -42 7 -162 8
-173 2 -5 -4 -7 33 -6 88 4 103 -12 165 -61 250 -73 123 -272 231 -482 262
-35 5 -63 6 -63 3z"/>
<path d="M5190 5905 c-88 -23 -151 -71 -206 -156 -26 -42 -56 -171 -49 -215
13 -80 17 -94 31 -124 25 -50 114 -132 182 -168 34 -18 62 -31 62 -29 0 3 -26
21 -57 42 -100 64 -160 160 -170 271 -12 141 60 263 181 305 98 34 261 29 381
-10 33 -11 61 -18 63 -16 8 8 -107 67 -170 86 -78 24 -185 30 -248 14z"/>
<path d="M3727 5534 c-1 -1 -85 -5 -187 -8 -102 -3 -198 -8 -215 -10 -16 -3
-70 -7 -120 -11 -49 -3 -106 -8 -125 -10 -19 -3 -57 -7 -85 -10 -27 -3 -61 -7
-75 -10 -14 -2 -50 -7 -80 -11 -30 -3 -104 -15 -165 -26 -60 -10 -119 -20
-130 -22 -159 -26 -590 -140 -745 -198 -30 -11 -59 -21 -65 -23 -5 -1 -19 -5
-30 -10 -11 -4 -60 -23 -110 -42 -49 -19 -118 -48 -153 -64 -35 -16 -66 -29
-68 -29 -10 0 -250 -123 -319 -163 -62 -36 -223 -138 -250 -159 -5 -4 -52 -40
-103 -79 -87 -66 -258 -227 -328 -309 -74 -86 -168 -242 -208 -343 -73 -183
-93 -341 -62 -484 4 -15 8 -37 10 -48 18 -89 68 -210 132 -322 70 -123 265
-332 424 -455 85 -65 245 -173 330 -221 54 -31 311 -159 360 -180 19 -8 55
-24 80 -35 25 -10 97 -38 160 -62 63 -23 124 -46 135 -51 67 -29 608 -174 720
-193 17 -2 55 -10 85 -16 30 -6 66 -13 80 -15 14 -2 36 -6 50 -9 108 -21 393
-57 565 -71 33 -3 83 -7 110 -10 314 -28 902 -24 1235 10 30 3 80 8 110 11 81
7 152 14 180 19 14 2 49 7 79 10 30 4 61 8 70 10 9 1 43 6 75 10 70 8 360 60
413 74 21 6 54 13 73 16 19 3 43 8 52 11 9 3 25 7 35 9 279 58 719 203 992
327 91 41 306 151 333 169 14 10 29 19 33 19 5 0 192 120 220 142 135 104 185
147 260 223 50 49 104 108 120 129 17 21 35 44 40 50 55 60 161 269 188 371
60 224 34 457 -75 670 -83 162 -271 380 -433 500 -22 16 -42 32 -45 35 -19 19
-212 146 -266 175 -41 22 -46 22 -91 9 -27 -8 -62 -16 -78 -19 -37 -4 -182
-17 -227 -19 -31 -1 -40 -11 -150 -176 -65 -96 -126 -184 -135 -195 -10 -11
-39 -46 -63 -77 -67 -85 -150 -120 -224 -94 -17 6 -56 25 -86 42 -58 34 -180
84 -202 84 -7 0 -51 12 -98 25 -88 26 -165 41 -260 51 -73 7 -195 40 -226 61
-43 28 -65 83 -59 155 2 35 6 72 8 83 3 11 8 42 11 69 4 27 9 52 11 55 1 3 6
23 9 44 3 20 9 54 12 75 3 20 9 41 12 46 3 5 7 27 8 48 2 21 6 43 9 48 3 6 0
10 -7 10 -26 0 -154 68 -206 109 -58 46 -117 129 -127 178 -3 17 -12 36 -18
41 -7 6 -50 13 -97 17 -47 4 -93 9 -104 11 -10 2 -62 6 -115 9 -53 4 -114 8
-136 11 -86 8 -671 25 -678 18z m137 -803 c26 -30 215 -406 254 -506 37 -96
87 -263 80 -270 -4 -4 -206 -26 -248 -27 -37 -1 -44 12 -80 159 l-11 43 -100
-4 c-55 -2 -103 -6 -106 -9 -8 -8 -53 -168 -53 -188 0 -10 -5 -21 -10 -24 -6
-4 -67 -8 -136 -9 l-124 -3 6 41 c3 22 8 44 10 48 3 4 16 52 30 105 40 156 92
318 145 453 54 139 80 186 100 187 32 1 194 15 197 17 8 8 34 0 46 -13z m-677
-97 c28 -80 33 -126 13 -129 -8 -1 -35 -5 -60 -8 -61 -8 -155 -34 -190 -52
-127 -65 -155 -260 -50 -337 30 -22 149 -36 159 -20 4 6 6 52 5 102 -1 49 1
92 5 95 5 2 42 7 83 10 85 6 82 9 99 -80 6 -27 13 -61 15 -75 3 -13 14 -62 25
-108 22 -97 27 -89 -74 -142 -127 -66 -292 -77 -397 -28 -132 61 -203 186
-203 358 0 244 160 419 423 464 122 20 122 20 147 -50z m-667 -89 l0 -84 -35
-6 c-38 -5 -107 -18 -115 -20 -3 -1 -25 -5 -50 -9 -53 -10 -71 -22 -63 -42 5
-13 9 -46 12 -98 1 -17 7 -18 74 -12 39 4 91 9 113 12 40 5 41 4 48 -27 8 -44
8 -107 -2 -113 -10 -6 -114 -19 -167 -21 l-40 -1 3 -74 c2 -41 5 -76 7 -78 12
-12 143 1 225 22 37 10 53 10 55 2 2 -6 6 -50 10 -98 5 -80 4 -88 -12 -89 -10
0 -27 -2 -38 -5 -29 -6 -107 -14 -210 -20 -178 -11 -284 -5 -294 16 -8 17 -9
746 -1 754 5 5 117 29 190 41 19 3 46 8 60 10 14 2 52 7 85 10 32 3 61 8 64
10 2 3 22 5 43 5 l38 0 0 -85z m-726 -117 c82 -264 186 -631 180 -639 -12 -21
-97 -49 -162 -55 l-71 -6 -10 39 c-6 21 -16 70 -21 108 -6 39 -13 88 -16 110
-7 44 -12 88 -13 124 -1 26 -13 21 -17 -7 -4 -24 -17 -105 -20 -119 -1 -7 -10
-42 -19 -79 -9 -37 -18 -75 -20 -84 -2 -9 -10 -32 -18 -52 -13 -30 -23 -39
-57 -48 -23 -6 -49 -10 -58 -8 -15 3 -45 42 -97 130 -11 18 -34 58 -52 88 -18
30 -47 83 -63 118 -17 34 -33 62 -36 62 -4 0 -3 -17 1 -37 4 -21 8 -51 10 -68
1 -16 6 -59 11 -95 4 -36 8 -99 8 -140 l1 -75 -101 -2 c-125 -2 -170 14 -168
62 2 41 12 189 18 250 3 28 8 93 11 145 3 52 8 111 10 130 2 19 7 73 10 119 3
46 8 88 11 92 4 8 64 27 104 34 8 1 31 5 51 9 l36 6 68 -122 c37 -68 89 -169
117 -225 45 -95 63 -122 56 -90 -2 10 12 129 17 147 1 3 5 25 9 50 24 145 48
231 69 243 32 18 84 32 132 35 l42 3 47 -153z m4872 -676 c6 -4 36 -54 66
-112 167 -313 188 -363 270 -628 11 -37 7 -46 -25 -48 -12 -1 -49 -5 -82 -8
-176 -19 -164 -20 -180 16 -7 19 -21 65 -30 104 l-17 70 -102 -4 c-55 -2 -103
-5 -105 -8 -4 -3 -17 -48 -48 -166 l-15 -58 -129 0 c-71 0 -129 3 -129 8 0 4
10 43 21 87 11 44 22 87 24 95 38 173 176 566 219 622 10 13 34 20 87 24 41 4
75 7 76 8 7 5 90 4 99 -2z m-622 -59 c15 -4 17 -12 13 -40 -6 -32 -65 -164
-101 -223 -24 -38 -106 -180 -132 -227 -63 -113 -72 -131 -68 -136 3 -3 17 -3
32 -2 15 2 47 6 72 9 97 12 124 17 176 35 54 18 57 17 57 -19 0 -28 -13 -135
-21 -170 -9 -39 -11 -39 -187 -55 -38 -3 -83 -8 -100 -10 -54 -8 -198 -18
-270 -19 l-70 -1 0 35 c-1 83 82 265 219 478 48 73 86 135 86 138 0 2 -10 2
-22 0 -13 -3 -45 -7 -73 -10 -27 -3 -79 -8 -115 -12 -125 -13 -115 -18 -113
56 3 125 4 130 22 131 9 0 25 2 36 4 11 2 46 7 77 10 31 3 65 7 75 9 10 2 54
7 98 11 44 3 81 8 82 9 5 5 209 4 227 -1z m-707 -62 c33 -3 -14 -116 -137
-331 -46 -80 -100 -175 -121 -212 -22 -37 -39 -71 -39 -76 0 -19 195 7 288 38
l53 18 -6 -72 c-10 -116 -24 -176 -43 -177 -72 -6 -212 -20 -232 -24 -29 -6
-221 -18 -300 -19 l-65 -1 1 55 c2 91 95 284 243 504 52 76 61 99 39 91 -20
-6 -160 -20 -288 -28 -25 -2 -25 -1 -21 68 6 126 3 119 47 126 21 4 66 10 99
13 33 4 71 9 85 11 14 2 56 7 95 10 38 4 71 7 72 9 2 2 208 0 230 -3z m-772
-62 c5 -28 15 -84 19 -104 2 -11 6 -45 10 -75 9 -90 13 -133 31 -348 2 -29 7
-80 10 -113 3 -32 7 -85 10 -118 4 -44 2 -60 -8 -64 -19 -7 -256 -1 -264 7 -4
3 -8 32 -9 64 -5 112 -7 722 -3 727 6 6 182 43 193 41 5 -1 10 -9 11 -17z
m-475 -50 c131 -38 190 -125 184 -271 -4 -125 -100 -217 -279 -268 -54 -15
-60 -19 -57 -41 3 -21 36 -185 47 -231 2 -12 -2 -18 -13 -19 -9 -1 -28 -4 -42
-6 -52 -10 -209 -8 -220 3 -6 6 -12 46 -15 90 -2 43 -7 129 -10 189 -8 136
-12 264 -15 419 -3 135 -5 132 81 142 30 3 56 8 58 10 10 9 240 -4 281 -17z"/>
<path d="M3736 4461 c-12 -18 -37 -96 -42 -128 -6 -38 4 -46 65 -49 77 -5 80
2 40 97 -34 80 -50 101 -63 80z"/>
<path d="M6537 3459 c-8 -19 -21 -58 -28 -87 -11 -46 -11 -55 1 -62 20 -13
117 -16 129 -5 6 7 -50 144 -68 167 l-18 22 -16 -35z"/>
<path d="M3874 3348 c3 -24 8 -63 12 -88 9 -72 7 -71 65 -50 96 35 124 87 74
134 -25 23 -92 46 -135 46 -20 0 -21 -4 -16 -42z"/>
<path d="M5326 5222 c-10 -53 -22 -110 -27 -127 -4 -16 -11 -46 -14 -65 -3
-19 -16 -91 -30 -160 -45 -232 -46 -262 -13 -297 29 -31 86 -47 208 -59 45 -4
87 -10 125 -18 209 -44 413 -116 468 -164 9 -8 20 -12 23 -9 19 19 -221 154
-341 193 -48 16 -177 44 -223 49 -119 13 -183 29 -209 53 -24 22 -25 27 -19
89 4 36 8 68 10 72 2 3 7 29 10 56 4 28 11 75 16 105 10 61 17 112 25 180 2
25 7 65 10 90 12 87 12 101 6 104 -4 3 -15 -39 -25 -92z"/>
</g>
</svg>
