<?xml version="1.0"?>
<svg xmlns="http://www.w3.org/2000/svg" xmlns:xlink="http://www.w3.org/1999/xlink" xmlns:svgjs="http://svgjs.com/svgjs" version="1.1" width="512" height="512" x="0" y="0" viewBox="0 0 511.999 511.999" style="enable-background:new 0 0 512 512" xml:space="preserve" class=""><g>
<g xmlns="http://www.w3.org/2000/svg">
	<g>
		<path d="M511.609,118.445l-138.092,137.55l138.026,137.451C512.297,383.915,511.969,122.938,511.609,118.445z" fill="#f0d7b8" data-original="#000000" style="" class=""/>
	</g>
</g>
<g xmlns="http://www.w3.org/2000/svg">
	<g>
		<path d="M461.864,72.392H50.137c-13.393-0.001-25.717,5.275-34.719,13.901c93.83,93.462,142.91,142.348,228.77,227.872    c6.514,6.514,17.088,6.52,23.603,0.027c86.405-86.067,143.034-142.475,228.713-227.819    C487.444,77.624,475.186,72.392,461.864,72.392z" fill="#f0d7b8" data-original="#000000" style="" class=""/>
	</g>
</g>
<g xmlns="http://www.w3.org/2000/svg">
	<g>
		<path d="M0.405,118.458c-0.374,4.608-0.71,265.531,0.06,275.06l138.282-137.261L0.405,118.458z" fill="#f0d7b8" data-original="#000000" style="" class=""/>
	</g>
</g>
<g xmlns="http://www.w3.org/2000/svg">
	<g>
		<path d="M349.862,279.557l-58.49,58.259c-19.487,19.487-51.172,19.571-70.766-0.022l-58.209-57.981L15.543,425.584    c9.002,8.641,21.158,14.023,34.594,14.023h411.727c13.446,0,25.614-5.39,34.617-14.043L349.862,279.557z" fill="#f0d7b8" data-original="#000000" style="" class=""/>
	</g>
</g>
<g xmlns="http://www.w3.org/2000/svg">
</g>
<g xmlns="http://www.w3.org/2000/svg">
</g>
<g xmlns="http://www.w3.org/2000/svg">
</g>
<g xmlns="http://www.w3.org/2000/svg">
</g>
<g xmlns="http://www.w3.org/2000/svg">
</g>
<g xmlns="http://www.w3.org/2000/svg">
</g>
<g xmlns="http://www.w3.org/2000/svg">
</g>
<g xmlns="http://www.w3.org/2000/svg">
</g>
<g xmlns="http://www.w3.org/2000/svg">
</g>
<g xmlns="http://www.w3.org/2000/svg">
</g>
<g xmlns="http://www.w3.org/2000/svg">
</g>
<g xmlns="http://www.w3.org/2000/svg">
</g>
<g xmlns="http://www.w3.org/2000/svg">
</g>
<g xmlns="http://www.w3.org/2000/svg">
</g>
<g xmlns="http://www.w3.org/2000/svg">
</g>
</g></svg>
