<?xml version="1.0" encoding="utf-8"?>
<!-- Generator: Adobe Illustrator 25.0.0, SVG Export Plug-In . SVG Version: 6.00 Build 0)  -->
<svg version="1.1" id="Layer_1" xmlns="http://www.w3.org/2000/svg" xmlns:xlink="http://www.w3.org/1999/xlink" x="0px" y="0px"
	 viewBox="0 0 590.2 817" style="enable-background:new 0 0 590.2 817;" xml:space="preserve">
<style type="text/css">
	.st0{fill:none;}
	.st1{fill:#FFE3AC;}
	.st2{fill:#AB1300;}
	.st3{fill:#FFC043;}
	.st4{fill:#FF6937;}
	.st5{fill:#E11900;}
	.st6{fill:#FFFFFF;}
	.st7{fill:#FFD7D2;}
</style>
<g id="Layer_2_1_">
	<g id="WebLeft">
		<path class="st0" d="M84.6,539.8c2-2.1,1.9-5.4-0.1-7.4c-0.1-0.1-0.2-0.2-0.3-0.3l-4.1-3.4c-0.5-0.4-1-0.8-1.6-1.1l-2.1-1.7
			c-4.6-3.8-11.2-3.6-15.6,0.4c-9.4,8.4-19.7,15.7-30.7,21.9c-0.8,0.4-1.6,0.9-2.3,1.3c-6.1,3.3-12.4,6.3-18.8,9
			c-2.8,1.1-5.6,2.3-8.6,3.3l-1,27.4c16.2-4.9,31.9-11.6,46.6-20c4.2-2.4,8.1-4.9,11.7-7.2C67.3,555.4,76.4,548,84.6,539.8z
			 M336.8,781.7l-11-7.2c-2.4,1.1-4.9,1.9-7.5,2.7c2.5-0.8,5-1.7,7.5-2.7L336.8,781.7z M101.2,627c0.1,1.3,0.1,2.5,0.2,3.8
			C101.3,629.5,101.2,628.2,101.2,627z"/>
		<path class="st1" d="M328.3,745.4v0.9c-1.6,0.4-3.3,0.8-5,1.3C324.9,746.8,326.6,746.1,328.3,745.4L328.3,745.4z M146.1,626.2
			c-0.1-0.5-0.1-0.9-0.2-1.4c-0.2-1.8-0.4-3.6-0.7-5.4l-0.2-1.8c-0.3-2.1-0.6-4.1-0.9-6.2c0-0.1,0-0.2,0-0.3
			c-0.3-1.7-0.5-3.3-0.8-4.9l1.8-0.6c0.6,7.2,1,14.2,1.1,21.2C146.2,626.7,146.1,626.4,146.1,626.2L146.1,626.2z M193.7,619.8
			c0.1-0.7,0.1-1.3,0.2-2c0.1-1.5,0.3-2.9,0.4-4.3c0-0.5,0.1-1.1,0.1-1.6c0.2-1.9,0.3-3.8,0.4-5.7c0-0.3,0-0.5,0-0.8
			c0.1-1.6,0.2-3.2,0.3-4.8c0-0.4,0-0.8,0.1-1.2l2.5,0.2c-1.2,7.5-2.7,15-4.3,22.4C193.6,621.2,193.7,620.5,193.7,619.8L193.7,619.8
			z M304.2,675.9c2.5-1.9,4.1-4.8,4.4-7.9c1.2,2,2.4,4,3.5,6.1c-16.9,11.6-32.7,24-47.2,36.2C277.3,698,290.4,686.5,304.2,675.9
			L304.2,675.9z"/>
		<path class="st2" d="M278.9,636.1c-15.7,13.1-30.1,27.6-43.2,43.3c14.9-24.2,33.8-48.9,57.5-69.7l0.1-0.1l1.9,2.7
			c-3.8,3.8-7.8,7.3-12,10.7C279.3,626.1,277.6,631.3,278.9,636.1L278.9,636.1z M167.5,647.9c1-20.7,0.1-41.5-2.9-62
			c-0.7-5.1-4.7-9.2-9.8-10c-0.2-2.7-0.5-5-0.7-7.1c-0.7-5.9,3.4-11.4,9.3-12.4l4.5-0.8c2-0.3,4,0.3,5.4,1.8
			C175,587.8,173.1,618.1,167.5,647.9L167.5,647.9z M359.8,722.1l-1-3.1c-1.2-3.6-5-5.5-8.6-4.5l-2.2,0.7
			c-10.5,3.3-20.8,7.1-30.9,11.5l1-0.6l2.1-1.2c1.2-0.7,2.5-1.3,3.8-2l1.6-0.8c2.3-1.2,4.7-2.3,7-3.4c12.9-6.2,26.4-11.1,40.3-14.9
			c0.5-0.1,0.9-0.3,1.3-0.6l2,8.4c1.4,5.9-2.2,11.8-8,13.3c-2.6,0.7-5.3,1.5-7.9,2.2C360.4,725.5,360.3,723.8,359.8,722.1
			L359.8,722.1z M238.4,637l0.8-2.4c0.2-0.6,0.4-1.2,0.6-1.8l0.8-2.7l0.6-1.8c0.3-0.9,0.5-1.7,0.8-2.6l0.5-1.8
			c0.3-0.9,0.5-1.7,0.8-2.6c0.2-0.6,0.3-1.1,0.5-1.7c0.1-0.2,0.1-0.4,0.2-0.7c1.6-5.5,3.1-10.9,4.4-16c0.1-0.5,0.2-1,0.4-1.5
			c6.6-10,12.3-17.9,16.4-23.5c3.9-5.3,11.3-6.4,16.6-2.5c0.1,0.1,0.2,0.2,0.4,0.3l2,1.6c3,2.4,3.5,6.7,1.2,9.7
			c-0.5,0.6-1,1.3-1.5,2.1C266.9,603.5,251.7,619.5,238.4,637z"/>
		<path class="st2" d="M303.4,655.8c-1.6-2.2-4.7-2.7-7-1.1c0,0,0,0,0,0c-13.3,9.8-26,20.4-38,31.7c5.3-6,11-12,17-17.9
			c15.8-15.6,33.5-29.1,52.6-40.4c4.6-1.3,9.5,0.9,11.6,5.2l2.9,6c1.2,2.4,0.2,5.3-2.2,6.5c-11.4,5.7-22,11.7-32,17.9
			c-0.3-1.3-0.9-2.5-1.7-3.5L303.4,655.8z M358,680.5l2.4,4.4c-24.4,7.4-47.6,18.1-69,31.8c18.8-15.2,38.6-29.2,59.3-41.7
			c2,0.5,3.8,1.5,5.3,2.9C356.8,678.7,357.5,679.5,358,680.5L358,680.5z M229.8,586.9c-5.3,22.6-12.1,44.8-20.5,66.5
			c-1,2.5-2,5.1-3.1,7.7c8-27,13.5-54.7,16.4-82.7c0.6-6.2-3.9-11.8-10.1-12.4c-0.2,0-0.4,0-0.6,0l-2.4-0.1c0.1-2.6,0.2-4.9,0.3-7
			c0.2-5.6,4.9-10.1,10.5-10h4.9c2.5,0,4.7,1.5,5.7,3.7c0.5,0.9,0.7,1.9,0.6,2.9C231.5,562.1,231,573.3,229.8,586.9z"/>
		<path class="st3" d="M243.9,619.1c-0.1,0.1-24.2,21.7-39.5,47.9c0.6-2,1.2-4,1.8-6c1.1-2.6,2.1-5.1,3.1-7.7
			c8.4-21.6,15.2-43.9,20.5-66.5c3.5-15,5.7-27.4,7-35.8c1.1-6.7,7.1-11.4,13.9-10.8l2.4,0.2c3.7,0.4,6.5,3.7,6.1,7.4
			c0,0.1,0,0.2,0,0.2c-2.4,18-5.9,35.8-10.4,53.4c-0.1,0.5-0.2,1-0.4,1.5C246.9,608.5,245.5,613.8,243.9,619.1L243.9,619.1z
			 M240.6,630.2l0.6-1.8L240.6,630.2z M241.9,625.8l0.5-1.8L241.9,625.8z M239.2,634.6c0.2-0.6,0.4-1.2,0.6-1.8
			C239.5,633.4,239.4,634,239.2,634.6z M243.2,621.4c0.2-0.6,0.3-1.1,0.5-1.7C243.6,620.3,243.4,620.9,243.2,621.4z M112.9,594.2
			c-0.1,7-0.7,13.9-1.6,20.8l-9.3-6.1l-0.1-0.2c-1.4-5.5,1.6-11.2,7-13.1l9.6-3.3L112.9,594.2z"/>
		<path class="st4" d="M118.6,592.3c4.6,21.8,9,51.3,8.1,82c-6.9-17.8-10.4-36.7-10.2-55.8l-5.2-3.5c1-6.9,1.5-13.8,1.6-20.8
			L118.6,592.3z"/>
		<path class="st3" d="M309.9,588.8V588C309.9,588.2,309.9,588.5,309.9,588.8z M309.7,594.9c0-0.6,0-1.1,0.1-1.7
			C309.7,593.8,309.7,594.3,309.7,594.9z M163,685.6c2.3-12.5,3.8-25.1,4.4-37.7c5.6-29.8,7.6-60.2,5.8-90.5
			c-0.3-4.6-0.6-8.5-0.9-11.8c-0.5-5.5,3.3-10.4,8.7-11.2l0.9-0.1l4.2-0.7c3.5-0.6,6.8,1.8,7.4,5.3c0,0.1,0,0.2,0,0.3
			c0.3,3,0.7,6.8,1.1,11.4c0.7,8.5,1.2,19.8,1.1,32.9C195.5,584.9,187.6,635.2,163,685.6L163,685.6z M193.7,619.8
			c0.1-0.7,0.1-1.3,0.2-2C193.9,618.5,193.8,619.1,193.7,619.8z M231.1,606.1v-0.8C231.1,605.6,231.1,605.8,231.1,606.1z
			 M309.5,598.8v0.5l-0.1,1.2L309.5,598.8z"/>
		<path class="st4" d="M195.2,600.5c-0.1,1.6-0.2,3.2-0.3,4.8c0,0.3,0,0.5,0,0.8c-0.1,1.9-0.3,3.8-0.4,5.7c0,0.5-0.1,1.1-0.1,1.6
			c-0.1,1.4-0.2,2.9-0.4,4.3c-0.1,0.7-0.1,1.3-0.2,2s-0.1,1.4-0.2,2.1c-6.3,29.1-17.1,65.9-35.5,101.7c-1.3-1.3-2.5-2.7-3.7-4
			c3.7-11.1,6.6-22.5,8.7-34c24.5-50.4,32.5-100.8,32.7-102.1c0,1.5,0,3-0.1,4.5v0.8c0,1.5-0.1,2.9-0.1,4.4l-0.1,1.7
			c0,1.3-0.1,2.5-0.2,3.8L195.2,600.5z"/>
		<path class="st3" d="M179,603.3c-0.3-1.7-0.6-3.3-0.9-4.9C178.4,600,178.7,601.7,179,603.3z M255.9,597.2c-0.4-2-0.8-3.9-1.1-5.8
			C255.1,593.2,255.5,595.2,255.9,597.2z M145.9,624.8c-0.2-1.8-0.4-3.6-0.7-5.4C145.5,621.2,145.7,623,145.9,624.8z M143.1,604.9
			c0.1,0.5,0.2,0.9,0.2,1.4c0.3,1.6,0.5,3.3,0.8,4.9C143.8,609.1,143.4,607,143.1,604.9z M128,677.5c-0.4-1.1-0.9-2.2-1.3-3.2
			c0.9-30.6-3.5-60.2-8.1-82c-0.8-3.8-1.6-7.3-2.4-10.6c-1.5-6.2,2.3-12.5,8.4-14.2l3.4-0.9c3.4-0.9,6.9,1.1,7.8,4.5
			c0,0,0,0.1,0,0.1c1.5,5.9,3.1,12.7,4.6,20C140.5,591.6,139.9,650.4,128,677.5L128,677.5z M146.2,626.9L146.2,626.9l-0.1-0.7
			C146.1,626.4,146.2,626.7,146.2,626.9z M145,617.6c-0.3-2.1-0.6-4.1-0.9-6.2C144.4,613.5,144.7,615.5,145,617.6z"/>
		<path class="st4" d="M144.1,611.2c0,0.1,0,0.2,0,0.3c0.3,2,0.6,4.1,0.9,6.2l0.2,1.8c0.2,1.8,0.5,3.6,0.7,5.4
			c0.1,0.5,0.1,0.9,0.2,1.4l0.1,0.8c0.5,23.8-2.2,47.6-8,70.7c-3.9-6.5-7.3-13.3-10.2-20.2c11.9-27.1,12.5-85.9,12.5-86.3
			c0,0.1,0,0.1,0,0.2c0.4,1.9,0.8,3.8,1.1,5.8c0.1,0.4,0.1,0.8,0.2,1.3c0.3,1.6,0.6,3.2,0.9,4.9l0.3,1.5
			C143.4,607,143.8,609,144.1,611.2L144.1,611.2z"/>
		<path class="st3" d="M332.5,718.7l1.2-0.6c-6.4,0.3-39.4,10.1-65.6,18.2c7.6-6.7,15.4-13.2,23.2-19.6c21.4-13.8,44.6-24.5,69-31.8
			l1.5-0.5c5.6-1.6,11.5,1.6,13.2,7.2c0,0.2,0.1,0.3,0.1,0.5l1.2,4.8l0.2,0.6c0.1,0.3,0.1,0.7,0.1,1c0.1,1.9-0.9,3.8-2.5,4.8
			c-0.4,0.3-0.8,0.4-1.3,0.6C358.9,707.6,345.4,712.6,332.5,718.7L332.5,718.7z M318,726.1l2.1-1.2L318,726.1z M323.9,723l1.6-0.8
			L323.9,723z"/>
		<path class="st4" d="M268.1,736.3c26.2-8.1,59.2-17.8,65.6-18.2l-1.2,0.6c-2.4,1.1-4.7,2.3-7,3.4l-1.6,0.8c-1.3,0.7-2.5,1.3-3.8,2
			l-2.1,1.2l-1,0.6c-25.7,11.2-50.1,25.2-72.8,41.7c-2.9-0.4-5.8-1-8.6-1.6C245.1,757.3,256,746.9,268.1,736.3z"/>
		<path class="st3" d="M275.5,668.5c-11.9,6.2-33.4,18.3-52.2,32.5c3.8-7.1,7.9-14.3,12.3-21.6c13.1-15.7,27.5-30.2,43.2-43.3
			c16.7-13.9,34.9-25.8,54.4-35.4c1.1-0.5,2.3-1.1,3.4-1.6c2.8-1.3,6.1-0.1,7.4,2.7c0,0,0,0.1,0.1,0.1l1.7,3.9
			c2.6,5.9,0.1,12.7-5.6,15.6c-4.2,2.1-8.2,4.3-12.2,6.7C308.9,639.4,291.3,652.9,275.5,668.5L275.5,668.5z"/>
		<path class="st4" d="M223.3,701c18.8-14.2,40.3-26.3,52.2-32.5c-5.9,5.8-11.6,11.7-17,17.9c-21.3,20.1-40.7,42.1-58.1,65.6
			C207,734.5,214.6,717.5,223.3,701z"/>
		<path class="st3" d="M164.6,585.9c2.9,20.5,3.9,41.3,2.9,62c-0.7,12.7-2.2,25.3-4.5,37.7c-2.1,11.5-5.1,22.8-8.7,33.9
			c-6-6.8-11.4-14.1-16.1-21.8c5.8-23.1,8.5-46.9,8-70.7v-0.1c-0.1-7-0.5-14.1-1.1-21.2c-0.7-7.5-1.6-15.1-2.8-22.8
			c-0.4-2.6,1.2-5.1,3.8-5.7l5.6-1.3c1-0.1,2.1-0.1,3.1,0C159.9,576.7,163.9,580.8,164.6,585.9L164.6,585.9z M291.3,716.7
			c-7.9,6.4-15.7,12.9-23.2,19.6c-12,10.6-23,21-32.5,30.5c-4.3-0.9-8.5-2-12.7-3.3c13.8-19.7,24.9-35.2,24.9-35.2
			c5.5-6.1,11.2-12.1,17.2-18.1c14.5-12.2,30.3-24.5,47.2-36.2c12.1-8.3,24.8-16.3,37.8-23.7c5.1-2.8,11.5-1,14.3,4.1
			c0,0.1,0.1,0.1,0.1,0.2l2.8,5.3c1.3,2.4,0.3,5.4-2,6.7c-4.9,2.7-9.7,5.4-14.5,8.3C330,687.5,310.1,701.5,291.3,716.7L291.3,716.7z
			"/>
		<path class="st3" d="M304.2,675.9c-13.8,10.6-27,22.1-39.3,34.3c-6,6-11.8,12-17.2,18.1c-16.2,6.8-31.1,16.2-44.2,27.8
			c-1.3-0.6-2.6-1.2-3.9-1.9c0.3-0.7,0.5-1.5,0.8-2.2c17.4-23.5,36.8-45.5,58.1-65.6c12-11.3,24.7-21.9,38-31.7
			c2.2-1.6,5.4-1.1,7,1.1c0,0,0,0,0,0l3.2,4.5c0.8,1.1,1.3,2.2,1.7,3.5C309.6,668.3,308,673.1,304.2,675.9L304.2,675.9z"/>
		<path class="st4" d="M247.7,728.3c0,0-11.1,15.5-24.9,35.2c-6.6-2-13.1-4.5-19.3-7.4C216.6,744.5,231.5,735.1,247.7,728.3z
			 M175,758.3l-1.1-1.3l1.3,0.9C175.1,758,175.1,758.2,175,758.3z M204.4,667c15.3-26.3,39.4-47.8,39.5-47.9
			c-0.1,0.2-0.1,0.4-0.2,0.7c-0.2,0.6-0.3,1.1-0.5,1.7c-0.2,0.8-0.5,1.7-0.8,2.6l-0.5,1.8c-0.3,0.8-0.5,1.7-0.8,2.6l-0.6,1.8
			l-0.8,2.7c-0.2,0.6-0.4,1.2-0.6,1.8l-0.8,2.4c-28.5,37.1-46.9,76.8-57.9,105.9c-2-1.4-3.9-2.8-5.8-4.3
			C186.9,715.7,196.8,691.8,204.4,667L204.4,667z"/>
		<path class="st3" d="M222.6,578.3c-3,28-8.5,55.7-16.4,82.7c-0.6,2-1.2,4-1.8,6c-7.6,24.8-17.5,48.7-29.7,71.6
			c-5.9-4.6-11.5-9.6-16.7-15c18.4-35.8,29.2-72.6,35.5-101.7c1.6-7.4,3-14.9,4.3-22.4c2.3-13.7,3.4-24.1,3.9-29.6
			c0.2-2.4,2.3-4.3,4.8-4.2l3.1,0.2l2.4,0.1c6.2,0.3,11.1,5.6,10.8,11.8C222.7,577.9,222.7,578.1,222.6,578.3L222.6,578.3z
			 M235.7,679.4c-4.5,7.3-8.6,14.5-12.3,21.6c-8.7,16.5-16.4,33.5-22.9,51c-0.3,0.7-0.6,1.5-0.8,2.2c-5.3-2.6-10.5-5.6-15.4-8.9
			c-1.2-0.8-2.4-1.6-3.6-2.5c10.9-29.1,29.3-68.7,57.9-105.9c13.3-17.5,28.5-33.5,45.4-47.7l0.1-0.1c2.4-2,5.9-1.7,7.8,0.7
			c0,0,0.1,0.1,0.1,0.1l2.8,3.4c3.9,4.9,3.4,12-1.3,16.2l-0.1,0.1C269.5,630.6,250.6,655.2,235.7,679.4L235.7,679.4z M175.7,758.2
			c0.4,0.3,0.9,0.6,1.3,0.8c-1.2-0.4-1.8-0.6-1.8-0.6l-0.1-0.2c0-0.1,0.1-0.3,0.1-0.4L175.7,758.2z M256.7,764.3l-7.3,4.8
			c-1.8-0.2-3.5-0.4-5.3-0.7c22.7-16.5,47.1-30.5,72.8-41.7c10.1-4.3,20.4-8.2,30.9-11.5l2.2-0.7c3.6-1.1,7.4,0.9,8.6,4.5l1,3.2
			c2,6-1.3,12.4-7.2,14.3c0,0-0.1,0-0.1,0c-1.2,0.4-2.2,0.7-2.9,0.9c-4.3,1.4-8.5,3-12.8,4.6C319.3,741.6,289.8,751.6,256.7,764.3
			L256.7,764.3z"/>
		<path class="st4" d="M266.4,770c-5.6,0-11.3-0.3-16.9-1l7.3-4.8c33.1-12.7,62.5-22.7,80-22.3c-2.8,1.1-5.6,2.2-8.4,3.4
			c-1.7,0.7-3.4,1.4-5.1,2.2C303.5,752.8,284.4,760.4,266.4,770z"/>
		<path class="st3" d="M266.4,770c18-9.6,37.1-17.2,56.9-22.4c1.7-0.5,3.4-0.9,5-1.3c5.2-1.3,9.8-2.2,13.6-2.9
			c6.6-1.2,13,3.2,14.2,9.9c0.1,0.4,0.1,0.8,0.2,1.2l0.3,3.5c0.2,2.8-1.8,5.3-4.6,5.7c-2.7,0.4-6.6,1-11.2,2l-13.2-8.6
			C308.2,765.6,287.4,770,266.4,770z"/>
		<path class="st1" d="M83.6,615.3l-0.9-0.6l-14.9,30.2l-42.3,85.5l-2.2-20l56.7-103.9l9.7-5.7l-6.9,13.9L83.6,615.3z M5.1,743.4
			l2.6,22.7L-17.5,817H-35l34.5-63.2L5.1,743.4z"/>
		<path class="st4" d="M23.1,710.3l2.2,20L7.7,766.2l-2.6-22.7L23.1,710.3z"/>
		<path class="st5" d="M202,772.3c36.9,15.7,78.3,17.4,116.3,4.8c2.6-0.7,5.1-1.6,7.5-2.7l11,7.2l7.6,5L318.7,817H216
			C212.1,801.9,207.4,787,202,772.3z M7.7,766.2l17.7-35.8l42.3-85.5l14.9-30.2l-4.7,9.5c33.2,53.6,46.6,106.5,49.3,153.8
			c-21.7,1.7-39.5,17.7-43.6,39H-17.5L7.7,766.2z"/>
		<path class="st4" d="M136.1,778.1c-2.9-0.3-5.9-0.3-8.9-0.1c-2.7-47.3-16-100.3-49.3-153.9l4.7-9.5l0.9,0.6l17.6,11.6v0.2
			c0,1.2,0.1,2.5,0.2,3.8c3.3,51,30.1,97.7,72.5,126.2l1.1,1.3l0.1,0.2c0,0,0.6,0.2,1.8,0.6c7.9,5.1,16.3,9.6,25,13.3
			c5.4,14.6,10.1,29.6,14,44.7h-37.7C174.3,796.2,157.2,780.4,136.1,778.1L136.1,778.1z"/>
		<path class="st3" d="M325.8,774.5c-2.5,1-5,1.8-7.5,2.7c-47.4,15.7-99.4,9.1-141.3-18.1c-0.4-0.3-0.9-0.5-1.3-0.8l-0.5-0.3
			l-1.3-0.9c-42.5-28.6-69.2-75.2-72.5-126.3c-0.1-1.2-0.2-2.5-0.2-3.8v-0.2l-17.6-11.6l-0.9-0.6l6.9-13.9l12.5,8.2l9.3,6.1l5.2,3.4
			c-0.2,19.1,3.3,38,10.2,55.8c0.4,1.1,0.8,2.2,1.3,3.2c6.4,15.4,15.3,29.6,26.4,42.1c1.2,1.4,2.4,2.7,3.7,4
			c5.2,5.4,10.8,10.4,16.7,15c1.9,1.5,3.8,2.9,5.8,4.3c1.2,0.8,2.4,1.7,3.6,2.5c5,3.3,10.1,6.2,15.4,8.9c1.3,0.7,2.6,1.3,3.9,1.9
			c6.3,2.9,12.7,5.4,19.3,7.4c4.2,1.3,8.5,2.4,12.7,3.3c2.9,0.6,5.8,1.1,8.6,1.6c1.8,0.3,3.5,0.5,5.3,0.7c26.6,3,53.5-1.1,78-11.9
			l13.2,8.6l13.8,9.1l-10,11.8l-7.6-5L325.8,774.5z M127.2,778c24.5-1.9,46.5,14.9,51.1,39H83.6C87.7,795.7,105.5,779.7,127.2,778
			L127.2,778z"/>
		<path class="st1" d="M64.5,529.1c-9.4,8.4-19.7,15.8-30.7,21.9c-0.8,0.4-1.5,0.9-2.3,1.3c-6.1,3.3-12.4,6.3-18.8,9
			c-3.9,1.6-8.1,3.2-12.5,4.7l0.2-4.2c3-1.1,5.9-2.2,8.6-3.3c6.4-2.7,12.7-5.7,18.8-9c0.8-0.4,1.6-0.9,2.3-1.3
			c11-6.1,21.3-13.5,30.7-21.9c4.4-4,11.1-4.2,15.6-0.4l2.1,1.7C74,525,68.4,525.6,64.5,529.1z"/>
		<path class="st3" d="M57.6,561.9c-3.6,2.4-7.5,4.8-11.7,7.2c-14.7,8.4-30.4,15.1-46.6,20L0.1,566c4.4-1.5,8.5-3.1,12.5-4.7
			c6.4-2.7,12.7-5.7,18.8-9c0.8-0.4,1.6-0.9,2.3-1.3c11-6.1,21.3-13.5,30.7-21.9c3.8-3.5,9.5-4.1,14-1.5c0.6,0.3,1.1,0.7,1.6,1.1
			l4.1,3.4c2.2,1.9,2.5,5.2,0.7,7.4c-0.1,0.1-0.2,0.2-0.3,0.3C76.4,548.1,67.3,555.5,57.6,561.9L57.6,561.9z"/>
		<path class="st1" d="M25.4,817h-0.3l0.5-0.3C25.5,816.8,25.5,816.9,25.4,817z"/>
		<path class="st0" d="M6.8,266c6-3.6,11.7-7.5,17.2-11.8c9.1-6.9,17.6-14.5,25.4-22.8C34.2,220.7,17.7,211.8,0.3,205v64.7
			c1.4-0.8,2.8-1.5,4.2-2.4C5.2,266.9,6,266.4,6.8,266z"/>
		<path class="st1" d="M67,213.1L67,213.1c5.4-7.2,10.4-14.8,14.9-22.6c1.7-2.9,5.3-3.9,8.2-2.3l3.1,1.7c4.3,2.4,6.7,7.2,6,12.1
			l0.5-0.8c3.4-5.6,1.6-12.9-4-16.3c-0.1-0.1-0.3-0.2-0.4-0.2l-3.1-1.7c-2.9-1.6-6.5-0.6-8.2,2.3c-5.4,9.4-11.5,18.4-18.1,27
			L67,213.1L67,213.1z M4.7,271.2c6-3.6,11.7-7.5,17.3-11.7c10.5-8,20.3-17,29.1-26.7c-0.5-0.4-1.1-0.8-1.7-1.2
			c-7.9,8.2-16.4,15.8-25.4,22.7c-5.5,4.2-11.3,8.1-17.2,11.7c-0.8,0.5-1.6,0.9-2.3,1.4c-1.4,0.8-2.8,1.6-4.2,2.4v4.1
			c0.7-0.4,1.4-0.8,2.1-1.2S3.9,271.7,4.7,271.2z M94.6,242c3.3,3.5,6.4,7,9.1,10.3c7.5,9,14,18.7,19.5,28.9c0.3,0.5,0.4,1,0.5,1.6
			c1-1.6,1.1-3.6,0.3-5.2c-5.5-10.3-12.1-20-19.6-29c-2.7-3.3-5.8-6.8-9.1-10.3c-3.5-3.7-7.4-7.5-11.6-11.3l-1.9,2.6
			C86.6,233.8,90.8,237.9,94.6,242L94.6,242z M67.1,213.2L67.1,213.2L67.1,213.2z"/>
		<path class="st1" d="M65,215.8c0.7-0.9,1.3-1.8,2-2.7l-1.1-0.8c-20-14.6-42.1-26.2-65.6-34.3v3.9C23.4,190,45.2,201.4,65,215.8z"
			/>
		<path class="st3" d="M68.1,246.4c-2.4-2.1-4.9-4.3-7.6-6.5c-2.9-2.4-6.1-4.8-9.4-7.2c-8.9,9.8-18.6,18.7-29.1,26.7
			c-5.5,4.2-11.3,8.1-17.3,11.7c-0.8,0.5-1.6,0.9-2.3,1.4s-1.4,0.8-2.1,1.2v24.6c3.7-1.8,7.6-3.9,11.6-6.2
			C32.9,280,51.9,264.6,68.1,246.4z M93.2,189.9l-3.1-1.7c-2.9-1.6-6.5-0.6-8.2,2.3c-4.5,7.8-9.5,15.4-14.8,22.7
			c6.1,4.6,11.7,9.2,16.7,13.7c-0.6,0.9-1.3,1.7-1.9,2.6c0,0,0.1,0,0.1,0.1l1.9-2.6c4.7-6.4,9.3-13.2,13.8-20.5
			c3.4-5.6,1.6-12.9-4-16.3C93.4,190.1,93.3,190,93.2,189.9z"/>
		<path class="st4" d="M67.1,213.2L67.1,213.2c-0.8,0.8-1.4,1.7-2.1,2.6c6.2,4.5,11.8,9.1,16.9,13.7c0.6-0.9,1.3-1.7,1.9-2.6
			C78.7,222.4,73.2,217.8,67.1,213.2L67.1,213.2z"/>
		<path class="st3" d="M51.1,232.7c3.3,2.4,6.5,4.8,9.4,7.2c2.7,2.2,5.2,4.4,7.6,6.5c2.9,2.6,5.5,5.1,7.9,7.5
			c0.6,0.6,1.3,1.3,1.9,1.9c8.8,9.1,16.5,19.1,23.1,29.8c3.1,5.1,9.4,7.1,14.8,4.8l4.9-2.1c2.2-0.9,3.5-3.3,3.1-5.6
			c-0.1-0.6-0.2-1.1-0.5-1.6c-5.5-10.3-12.1-20-19.6-29c-2.7-3.3-5.8-6.8-9.1-10.3c-3.8-4-8-8.2-12.7-12.4c0,0,0-0.1-0.1-0.1
			c-5.1-4.6-10.7-9.2-16.9-13.7C45.2,201.4,23.4,190,0.3,181.9V205c17.4,6.8,33.9,15.7,49.2,26.4C50,231.9,50.6,232.3,51.1,232.7z"
			/>
		<path class="st1" d="M41.6,493.2C28.5,503.8,14.4,513-0.5,520.9V496c11.6-6.8,22.6-14.6,32.9-23.2c1.8-1.5,4.4-1.8,6.6-0.8
			c0.7,0.4,1.4,0.9,1.9,1.5l2.3,2.6c4.3,4.9,3.8,12.4-1.2,16.7C41.9,493,41.8,493.1,41.6,493.2L41.6,493.2z"/>
		<path class="st3" d="M44.6,485.4c-14,11.2-29.1,21-45.1,29.2v-24.7c12.6-7.2,24.6-15.5,35.8-24.8c1.8-1.5,4.4-1.8,6.6-0.8
			c0.7,0.4,1.4,0.9,1.9,1.5l2.3,2.7c4.3,5,3.8,12.5-1.2,16.7C44.8,485.2,44.7,485.3,44.6,485.4L44.6,485.4z"/>
		<path class="st1" d="M0,435.1c5.6,4.4,10.6,10.1,17.4,12.3c7.2,2.3,15.4,0.2,23.3,0.2s16.2,2.1,23.3-0.2c7.4-2.4,12.8-9,19-13.6
			s14.2-7.6,18.8-13.9s5-14.7,7.4-22.1c2.3-7.2,7-14.3,7-22.3s-4.7-15.1-7-22.3c-2.4-7.4-2.9-15.9-7.4-22.1
			c-4.5-6.2-12.5-9.3-18.8-13.9s-11.6-11.1-19-13.6c-7.2-2.3-15.4-0.2-23.3-0.2s-16.2-2.1-23.3,0.2C10.6,305.9,5.6,311.6,0,316
			V435.1z"/>
		<path class="st6" d="M111.6,366.1c0,8-4.7,15.1-7,22.3c-2.4,7.4-2.9,15.9-7.4,22.1c-4.5,6.2-12.5,9.3-18.8,13.9
			s-11.6,11.1-19,13.6c-7.2,2.3-15.4,0.2-23.3,0.2s-16.2,2.1-23.3-0.2c-4.8-1.6-8.8-5-12.7-8.3v-127c3.9-3.4,7.8-6.8,12.7-8.3
			c7.2-2.3,15.4-0.2,23.3-0.2s16.2-2.1,23.3,0.2c7.4,2.4,12.8,9,19,13.6s14.2,7.6,18.8,13.9s5,14.7,7.4,22.1
			C106.9,351,111.6,358.1,111.6,366.1z"/>
		<path class="st7" d="M101.2,366.1c0,36-29.2,65.2-65.2,65.2c-12.8,0-25.3-3.8-36-10.9V311.8c30-19.9,70.4-11.7,90.3,18.3
			C97.4,340.8,101.2,353.3,101.2,366.1z"/>
		<path class="st2" d="M91.7,366.1c0,30.8-24.9,55.7-55.7,55.7c-11.3,0-22.3-3.4-31.6-9.8c-1.5-1.1-3-2.2-4.4-3.4v-84.9
			c23.4-19.9,58.6-17,78.5,6.4c1.2,1.4,2.3,2.9,3.4,4.4C88.3,343.8,91.7,354.8,91.7,366.1z"/>
		<path class="st5" d="M91.7,366.1c0,30.8-24.9,55.7-55.7,55.7c-11.3,0-22.3-3.4-31.6-9.8c-1.7-2.4-3.2-5-4.4-7.6v-48
			c13.3-27.7,46.5-39.5,74.3-26.2c2.6,1.3,5.2,2.7,7.6,4.4C88.3,343.8,91.7,354.8,91.7,366.1L91.7,366.1z"/>
		<path class="st1" d="M5.6,96.8c2-4.9,7.6-7.2,12.5-5.2c0.1,0,0.2,0.1,0.3,0.1c27.9,12.6,61.1,34.2,96,70.8
			c2.6,2.8,2.5,7.2-0.2,9.8c0,0-0.1,0.1-0.1,0.1l-4.1,3.7c-0.2,0.2-0.5,0.4-0.7,0.6c-4,3-9.5,2.6-13-1
			c-13.1-13.7-27.4-26.2-42.6-37.4c-11.8-8.7-24.4-16.4-37.5-23c-3.2-1.6-6.3-3.1-9.3-4.4c-3.4-1.5-4.9-5.3-3.5-8.7L5.6,96.8z"/>
		<path class="st3" d="M8.2,92.8c2-4.9,7.6-7.2,12.5-5.2c0.1,0,0.2,0.1,0.3,0.1c27.8,12.7,61.1,34.2,96,70.8
			c2.6,2.8,2.5,7.1-0.2,9.8c0,0-0.1,0.1-0.1,0.1l-4,3.7c-0.2,0.2-0.5,0.4-0.7,0.6c-4,3-9.5,2.6-13-1c-13.1-13.7-27.4-26.2-42.6-37.4
			c-11.8-8.7-24.4-16.4-37.5-23c-3.2-1.6-6.3-3.1-9.3-4.4c-3.4-1.5-4.9-5.3-3.5-8.7L8.2,92.8z"/>
	</g>
</g>
</svg>
