<?xml version="1.0" encoding="utf-8"?>
<!-- Generator: Adobe Illustrator 25.0.0, SVG Export Plug-In . SVG Version: 6.00 Build 0)  -->
<svg version="1.1" id="Layer_1" xmlns="http://www.w3.org/2000/svg" xmlns:xlink="http://www.w3.org/1999/xlink" x="0px" y="0px"
	 viewBox="0 0 590.2 857.2" style="enable-background:new 0 0 590.2 857.2;" xml:space="preserve">
<style type="text/css">
	.st0{fill:none;}
	.st1{fill:#FFE3AC;}
	.st2{fill:#AB1300;}
	.st3{fill:#FFC043;}
	.st4{fill:#FF6937;}
	.st5{fill:#E11900;}
	.st6{fill:#FFFFFF;}
	.st7{fill:#FFD7D2;}
</style>
<g id="Layer_2_1_">
	<g id="WebLeft">
		<path class="st0" d="M84.6,539c2-2.1,1.9-5.4-0.1-7.4c-0.1-0.1-0.2-0.2-0.3-0.3l-4.1-3.4c-0.5-0.4-1-0.8-1.6-1.1l-2.1-1.7
			c-4.6-3.8-11.2-3.6-15.6,0.4c-9.4,8.4-19.7,15.7-30.7,21.9c-0.8,0.4-1.6,0.9-2.3,1.3c-6.1,3.3-12.4,6.3-18.8,9
			c-2.8,1.1-5.6,2.3-8.6,3.3l-1,27.4c16.2-4.9,31.9-11.6,46.6-20c4.2-2.4,8.1-4.9,11.7-7.2C67.3,554.7,76.4,547.3,84.6,539z
			 M109.8,838.9l-11-7.2c-2.4,1.1-4.9,1.9-7.5,2.7c2.5-0.8,5-1.7,7.5-2.7L109.8,838.9z M-125.8,684.2c0.1,1.3,0.1,2.5,0.2,3.8
			C-125.7,686.7-125.8,685.5-125.8,684.2z"/>
		<path class="st1" d="M101.3,802.6v0.9c-1.6,0.4-3.3,0.8-5,1.3C97.9,804.1,99.6,803.3,101.3,802.6L101.3,802.6z M-80.9,683.4
			c-0.1-0.5-0.1-0.9-0.2-1.4c-0.2-1.8-0.4-3.6-0.7-5.4l-0.2-1.8c-0.3-2.1-0.6-4.1-0.9-6.2c0-0.1,0-0.2,0-0.3
			c-0.3-1.7-0.5-3.3-0.8-4.9l1.8-0.6c0.6,7.2,1,14.2,1.1,21.2C-80.8,683.9-80.9,683.7-80.9,683.4L-80.9,683.4z M-33.3,677
			c0.1-0.7,0.1-1.3,0.2-2c0.1-1.5,0.3-2.9,0.4-4.3c0-0.5,0.1-1.1,0.1-1.6c0.2-1.9,0.3-3.8,0.4-5.7c0-0.3,0-0.5,0-0.8
			c0.1-1.6,0.2-3.2,0.3-4.8c0-0.4,0-0.8,0.1-1.2l2.5,0.2c-1.2,7.5-2.7,15-4.3,22.4C-33.4,678.4-33.3,677.7-33.3,677L-33.3,677z
			 M77.2,733.2c2.5-1.9,4.1-4.8,4.4-7.9c1.2,2,2.4,4,3.5,6.1c-16.9,11.6-32.7,24-47.2,36.2C50.3,755.2,63.4,743.7,77.2,733.2
			L77.2,733.2z"/>
		<path class="st2" d="M51.9,693.4c-15.7,13.1-30.1,27.6-43.2,43.3c14.9-24.2,33.8-48.9,57.5-69.7l0.1-0.1l1.9,2.7
			c-3.8,3.8-7.8,7.3-12,10.7C52.3,683.3,50.6,688.5,51.9,693.4L51.9,693.4z M-59.5,705.2c1-20.7,0.1-41.5-2.9-62
			c-0.7-5.1-4.7-9.2-9.8-10c-0.2-2.7-0.5-5-0.7-7.1c-0.7-5.9,3.4-11.4,9.3-12.4l4.5-0.8c2-0.3,4,0.3,5.4,1.8
			C-52,645-53.9,675.4-59.5,705.2L-59.5,705.2z M132.8,779.4l-1-3.1c-1.2-3.6-5-5.5-8.6-4.5l-2.2,0.7c-10.5,3.3-20.8,7.1-30.9,11.5
			l1-0.6l2.1-1.2c1.2-0.7,2.5-1.3,3.8-2l1.6-0.8c2.3-1.2,4.7-2.3,7-3.4c12.9-6.2,26.4-11.1,40.3-14.9c0.5-0.1,0.9-0.3,1.3-0.6l2,8.4
			c1.4,5.9-2.2,11.8-8,13.3c-2.6,0.7-5.3,1.5-7.9,2.2C133.4,782.7,133.3,781,132.8,779.4L132.8,779.4z M11.4,694.2l0.8-2.4
			c0.2-0.6,0.4-1.2,0.6-1.8l0.8-2.7l0.6-1.8c0.3-0.9,0.5-1.7,0.8-2.6l0.5-1.8c0.3-0.9,0.5-1.7,0.8-2.6c0.2-0.6,0.3-1.1,0.5-1.7
			c0.1-0.2,0.1-0.4,0.2-0.7c1.6-5.5,3.1-10.9,4.4-16c0.1-0.5,0.2-1,0.4-1.5c6.6-10,12.3-17.9,16.4-23.5c3.9-5.3,11.3-6.4,16.6-2.5
			c0.1,0.1,0.2,0.2,0.4,0.3l2,1.6c3,2.4,3.5,6.7,1.2,9.7c-0.5,0.6-1,1.3-1.5,2.1C39.9,660.8,24.7,676.7,11.4,694.2z"/>
		<path class="st2" d="M76.4,713.1c-1.6-2.2-4.7-2.7-7-1.1c0,0,0,0,0,0c-13.3,9.8-26,20.4-38,31.7c5.3-6,11-12,17-17.9
			c15.8-15.6,33.5-29.1,52.6-40.4c4.6-1.3,9.5,0.9,11.6,5.2l2.9,6c1.2,2.4,0.2,5.3-2.2,6.5c-11.4,5.7-22,11.7-32,17.9
			c-0.3-1.3-0.9-2.5-1.7-3.5L76.4,713.1z M131,737.7l2.4,4.4c-24.4,7.4-47.6,18.1-69,31.8c18.8-15.2,38.6-29.2,59.3-41.7
			c2,0.5,3.8,1.5,5.3,2.9C129.8,735.9,130.5,736.8,131,737.7L131,737.7z M2.8,644.1c-5.3,22.6-12.1,44.8-20.5,66.5
			c-1,2.5-2,5.1-3.1,7.7c8-27,13.5-54.7,16.4-82.7c0.6-6.2-3.9-11.8-10.1-12.4c-0.2,0-0.4,0-0.6,0l-2.4-0.1c0.1-2.6,0.2-4.9,0.3-7
			c0.2-5.6,4.9-10.1,10.5-10h4.9c2.5,0,4.7,1.5,5.7,3.7c0.5,0.9,0.7,1.9,0.6,2.9C4.5,619.4,4,630.5,2.8,644.1z"/>
		<path class="st3" d="M16.9,676.3c-0.1,0.1-24.2,21.7-39.5,47.9c0.6-2,1.2-4,1.8-6c1.1-2.6,2.1-5.1,3.1-7.7
			c8.4-21.6,15.2-43.9,20.5-66.5c3.5-15,5.7-27.4,7-35.8c1.1-6.7,7.1-11.4,13.9-10.8l2.4,0.2c3.7,0.4,6.5,3.7,6.1,7.4
			c0,0.1,0,0.2,0,0.2c-2.4,18-5.9,35.8-10.4,53.4c-0.1,0.5-0.2,1-0.4,1.5C19.9,665.7,18.5,671,16.9,676.3L16.9,676.3z M13.6,687.4
			l0.6-1.8L13.6,687.4z M14.9,683.1l0.5-1.8L14.9,683.1z M12.2,691.9c0.2-0.6,0.4-1.2,0.6-1.8C12.5,690.7,12.4,691.2,12.2,691.9z
			 M16.2,678.7c0.2-0.6,0.3-1.1,0.5-1.7C16.6,677.5,16.4,678.1,16.2,678.7z M-114.1,651.5c-0.1,7-0.7,13.9-1.6,20.8l-9.3-6.1
			l-0.1-0.2c-1.4-5.5,1.6-11.2,7-13.1l9.6-3.3L-114.1,651.5z"/>
		<path class="st4" d="M-108.4,649.5c4.6,21.8,9,51.3,8.1,82c-6.9-17.8-10.4-36.7-10.2-55.8l-5.2-3.5c1-6.9,1.5-13.8,1.6-20.8
			L-108.4,649.5z"/>
		<path class="st3" d="M82.9,646v-0.8C82.9,645.5,82.9,645.8,82.9,646z M82.7,652.1c0-0.6,0-1.1,0.1-1.7
			C82.7,651,82.7,651.6,82.7,652.1z M-64,742.9c2.3-12.5,3.8-25.1,4.4-37.7c5.6-29.8,7.6-60.2,5.8-90.5c-0.3-4.6-0.6-8.5-0.9-11.8
			c-0.5-5.5,3.3-10.4,8.7-11.2l0.9-0.1l4.2-0.7c3.5-0.6,6.8,1.8,7.4,5.3c0,0.1,0,0.2,0,0.3c0.3,3,0.7,6.8,1.1,11.4
			c0.7,8.5,1.2,19.8,1.1,32.9C-31.5,642.1-39.4,692.4-64,742.9L-64,742.9z M-33.3,677c0.1-0.7,0.1-1.3,0.2-2
			C-33.1,675.7-33.2,676.4-33.3,677z M4.1,663.4v-0.8C4.1,662.8,4.1,663.1,4.1,663.4z M82.5,656v0.5l-0.1,1.2L82.5,656z"/>
		<path class="st4" d="M-31.8,657.8c-0.1,1.6-0.2,3.2-0.3,4.8c0,0.3,0,0.5,0,0.8c-0.1,1.9-0.3,3.8-0.4,5.7c0,0.5-0.1,1.1-0.1,1.6
			c-0.1,1.4-0.2,2.9-0.4,4.3c-0.1,0.7-0.1,1.3-0.2,2s-0.1,1.4-0.2,2.1C-39.8,708.2-50.6,745-69,780.8c-1.3-1.3-2.5-2.7-3.7-4
			c3.7-11.1,6.6-22.5,8.7-34c24.5-50.4,32.5-100.8,32.7-102.1c0,1.5,0,3-0.1,4.5v0.8c0,1.5-0.1,2.9-0.1,4.4l-0.1,1.7
			c0,1.3-0.1,2.5-0.2,3.8L-31.8,657.8z"/>
		<path class="st3" d="M-48,660.6c-0.3-1.7-0.6-3.3-0.9-4.9C-48.6,657.2-48.3,658.9-48,660.6z M28.9,654.4c-0.4-2-0.8-3.9-1.1-5.8
			C28.1,650.5,28.5,652.4,28.9,654.4z M-81.1,682c-0.2-1.8-0.4-3.6-0.7-5.4C-81.5,678.4-81.3,680.2-81.1,682z M-83.9,662.1
			c0.1,0.5,0.2,0.9,0.2,1.4c0.3,1.6,0.5,3.3,0.8,4.9C-83.2,666.3-83.6,664.2-83.9,662.1z M-99,734.7c-0.4-1.1-0.9-2.2-1.3-3.2
			c0.9-30.6-3.5-60.2-8.1-82c-0.8-3.8-1.6-7.3-2.4-10.6c-1.5-6.2,2.3-12.5,8.4-14.2l3.4-0.9c3.4-0.9,6.9,1.1,7.8,4.5
			c0,0,0,0.1,0,0.1c1.5,5.9,3.1,12.7,4.6,20C-86.5,648.8-87.1,707.6-99,734.7L-99,734.7z M-80.8,684.1L-80.8,684.1l-0.1-0.7
			C-80.9,683.7-80.8,683.9-80.8,684.1z M-82,674.8c-0.3-2.1-0.6-4.1-0.9-6.2C-82.6,670.7-82.3,672.8-82,674.8z"/>
		<path class="st4" d="M-82.9,668.4c0,0.1,0,0.2,0,0.3c0.3,2,0.6,4.1,0.9,6.2l0.2,1.8c0.2,1.8,0.5,3.6,0.7,5.4
			c0.1,0.5,0.1,0.9,0.2,1.4l0.1,0.8c0.5,23.8-2.2,47.6-8,70.7c-3.9-6.5-7.3-13.3-10.2-20.2c11.9-27.1,12.5-85.9,12.5-86.3
			c0,0.1,0,0.1,0,0.2c0.4,1.9,0.8,3.8,1.1,5.8c0.1,0.4,0.1,0.8,0.2,1.3c0.3,1.6,0.6,3.2,0.9,4.9l0.3,1.5
			C-83.6,664.2-83.2,666.3-82.9,668.4L-82.9,668.4z"/>
		<path class="st3" d="M105.5,776l1.2-0.6c-6.4,0.3-39.4,10.1-65.6,18.2c7.6-6.7,15.4-13.2,23.2-19.6c21.4-13.8,44.6-24.5,69-31.8
			l1.5-0.5c5.6-1.6,11.5,1.6,13.2,7.2c0,0.2,0.1,0.3,0.1,0.5l1.2,4.8l0.2,0.6c0.1,0.3,0.1,0.7,0.1,1c0.1,1.9-0.9,3.8-2.5,4.8
			c-0.4,0.3-0.8,0.4-1.3,0.6C131.9,764.8,118.4,769.8,105.5,776L105.5,776z M91,783.4l2.1-1.2L91,783.4z M96.9,780.2l1.6-0.8
			L96.9,780.2z"/>
		<path class="st4" d="M41.1,793.5c26.2-8.1,59.2-17.8,65.6-18.2l-1.2,0.6c-2.4,1.1-4.7,2.3-7,3.4l-1.6,0.8c-1.3,0.7-2.5,1.3-3.8,2
			l-2.1,1.2l-1,0.6c-25.7,11.2-50.1,25.2-72.8,41.7c-2.9-0.4-5.8-1-8.6-1.6C18.1,814.5,29,804.2,41.1,793.5z"/>
		<path class="st3" d="M48.5,725.7C36.6,732,15.1,744-3.7,758.3c3.8-7.1,7.9-14.3,12.3-21.6c13.1-15.7,27.5-30.2,43.2-43.3
			c16.7-13.9,34.9-25.8,54.4-35.4c1.1-0.5,2.3-1.1,3.4-1.6c2.8-1.3,6.1-0.1,7.4,2.7c0,0,0,0.1,0.1,0.1l1.7,3.9
			c2.6,5.9,0.1,12.7-5.6,15.6c-4.2,2.1-8.2,4.3-12.2,6.7C81.9,696.6,64.3,710.2,48.5,725.7L48.5,725.7z"/>
		<path class="st4" d="M-3.7,758.2c18.8-14.2,40.3-26.3,52.2-32.5c-5.9,5.8-11.6,11.7-17,17.9c-21.3,20.1-40.7,42.1-58.1,65.6
			C-20,791.8-12.4,774.7-3.7,758.2z"/>
		<path class="st3" d="M-62.4,643.2c2.9,20.5,3.9,41.3,2.9,62c-0.7,12.7-2.2,25.3-4.5,37.7c-2.1,11.5-5.1,22.8-8.7,33.9
			c-6-6.8-11.4-14.1-16.1-21.8c5.8-23.1,8.5-46.9,8-70.7v-0.1c-0.1-7-0.5-14.1-1.1-21.2c-0.7-7.5-1.6-15.1-2.8-22.8
			c-0.4-2.6,1.2-5.1,3.8-5.7l5.6-1.3c1-0.1,2.1-0.1,3.1,0C-67.1,634-63.1,638-62.4,643.2L-62.4,643.2z M64.3,774
			c-7.9,6.4-15.7,12.9-23.2,19.6c-12,10.6-23,21-32.5,30.5c-4.3-0.9-8.5-2-12.7-3.3c13.8-19.7,24.9-35.2,24.9-35.2
			c5.5-6.1,11.2-12.1,17.2-18.1c14.5-12.2,30.3-24.5,47.2-36.2c12.1-8.3,24.8-16.3,37.8-23.7c5.1-2.8,11.5-1,14.3,4.1
			c0,0.1,0.1,0.1,0.1,0.2l2.8,5.3c1.3,2.4,0.3,5.4-2,6.7c-4.9,2.7-9.7,5.4-14.5,8.3C103,744.8,83.1,758.7,64.3,774L64.3,774z"/>
		<path class="st3" d="M77.2,733.2c-13.8,10.6-27,22.1-39.3,34.3c-6,6-11.8,12-17.2,18.1c-16.2,6.8-31.1,16.2-44.2,27.8
			c-1.3-0.6-2.6-1.2-3.9-1.9c0.3-0.7,0.5-1.5,0.8-2.2c17.4-23.5,36.8-45.5,58.1-65.6c12-11.3,24.7-21.9,38-31.7
			c2.2-1.6,5.4-1.1,7,1.1c0,0,0,0,0,0l3.2,4.5c0.8,1.1,1.3,2.2,1.7,3.5C82.6,725.6,81,730.4,77.2,733.2L77.2,733.2z"/>
		<path class="st4" d="M20.7,785.5c0,0-11.1,15.5-24.9,35.2c-6.6-2-13.1-4.5-19.3-7.4C-10.4,801.7,4.5,792.3,20.7,785.5z M-52,815.6
			l-1.1-1.3l1.3,0.9C-51.9,815.2-51.9,815.4-52,815.6z M-22.6,724.2c15.3-26.3,39.4-47.8,39.5-47.9c-0.1,0.2-0.1,0.4-0.2,0.7
			c-0.2,0.6-0.3,1.1-0.5,1.7c-0.2,0.8-0.5,1.7-0.8,2.6l-0.5,1.8c-0.3,0.8-0.5,1.7-0.8,2.6l-0.6,1.8l-0.8,2.7
			c-0.2,0.6-0.4,1.2-0.6,1.8l-0.8,2.4c-28.5,37.1-46.9,76.8-57.9,105.9c-2-1.4-3.9-2.8-5.8-4.3C-40.1,773-30.2,749-22.6,724.2
			L-22.6,724.2z"/>
		<path class="st3" d="M-4.4,635.6c-3,28-8.5,55.7-16.4,82.7c-0.6,2-1.2,4-1.8,6c-7.6,24.8-17.5,48.7-29.7,71.6
			c-5.9-4.6-11.5-9.6-16.7-15c18.4-35.8,29.2-72.6,35.5-101.7c1.6-7.4,3-14.9,4.3-22.4c2.3-13.7,3.4-24.1,3.9-29.6
			c0.2-2.4,2.3-4.3,4.8-4.2l3.1,0.2l2.4,0.1c6.2,0.3,11.1,5.6,10.8,11.8C-4.3,635.1-4.3,635.4-4.4,635.6L-4.4,635.6z M8.7,736.7
			c-4.5,7.3-8.6,14.5-12.3,21.6c-8.7,16.5-16.4,33.5-22.9,51c-0.3,0.7-0.6,1.5-0.8,2.2c-5.3-2.6-10.5-5.6-15.4-8.9
			c-1.2-0.8-2.4-1.6-3.6-2.5c10.9-29.1,29.3-68.7,57.9-105.9c13.3-17.5,28.5-33.5,45.4-47.7l0.1-0.1c2.4-2,5.9-1.7,7.8,0.7
			c0,0,0.1,0.1,0.1,0.1l2.8,3.4c3.9,4.9,3.4,12-1.3,16.2l-0.1,0.1C42.5,687.8,23.6,712.4,8.7,736.7L8.7,736.7z M-51.3,815.5
			c0.4,0.3,0.9,0.6,1.3,0.8c-1.2-0.4-1.8-0.6-1.8-0.6l-0.1-0.2c0-0.1,0.1-0.3,0.1-0.4L-51.3,815.5z M29.7,821.5l-7.3,4.8
			c-1.8-0.2-3.5-0.4-5.3-0.7c22.7-16.5,47.1-30.5,72.8-41.7c10.1-4.3,20.4-8.2,30.9-11.5l2.2-0.7c3.6-1.1,7.4,0.9,8.6,4.5l1,3.2
			c2,6-1.3,12.4-7.2,14.3c0,0-0.1,0-0.1,0c-1.2,0.4-2.2,0.7-2.9,0.9c-4.3,1.4-8.5,3-12.8,4.6C92.3,798.8,62.8,808.8,29.7,821.5
			L29.7,821.5z"/>
		<path class="st4" d="M39.4,827.2c-5.6,0-11.3-0.3-16.9-1l7.3-4.8c33.1-12.7,62.5-22.7,80-22.3c-2.8,1.1-5.6,2.2-8.4,3.4
			c-1.7,0.7-3.4,1.4-5.1,2.2C76.5,810.1,57.4,817.6,39.4,827.2z"/>
		<path class="st3" d="M39.4,827.2c18-9.6,37.1-17.2,56.9-22.4c1.7-0.5,3.4-0.9,5-1.3c5.2-1.3,9.8-2.2,13.6-2.9
			c6.6-1.2,13,3.2,14.2,9.9c0.1,0.4,0.1,0.8,0.2,1.2l0.3,3.5c0.2,2.8-1.8,5.3-4.6,5.7c-2.7,0.4-6.6,1-11.2,2l-13.2-8.6
			C81.2,822.8,60.4,827.2,39.4,827.2z"/>
		<path class="st1" d="M-92.4,672.5l-0.9-0.6l-14.9,30.2l-42.3,85.5l-2.2-20l56.7-103.9l9.7-5.7l-6.9,13.9L-92.4,672.5z
			 M-93.9,800.7l2.6,22.7l-25.2,50.8H-134l34.5-63.2L-93.9,800.7z"/>
		<path class="st4" d="M-75.9,767.6l2.2,20l-17.7,35.8l-2.6-22.7L-75.9,767.6z"/>
		<path class="st5" d="M-25,829.6c36.9,15.7,78.3,17.4,116.3,4.8c2.6-0.7,5.1-1.6,7.5-2.7l11,7.2l7.6,5l-25.8,30.3H-11
			C-14.9,859.1-19.6,844.2-25,829.6z M-219.3,823.4l17.7-35.8l42.3-85.5l14.9-30.2l-4.7,9.5c33.2,53.6,46.6,106.5,49.3,153.8
			c-21.7,1.7-39.5,17.7-43.6,39h-101.1L-219.3,823.4z"/>
		<path class="st4" d="M-90.9,835.4c-2.9-0.3-5.9-0.3-8.9-0.1c-2.7-47.3-16-100.3-49.3-153.9l4.7-9.5l0.9,0.6l17.6,11.6v0.2
			c0,1.2,0.1,2.5,0.2,3.8c3.3,51,30.1,97.7,72.5,126.2l1.1,1.3l0.1,0.2c0,0,0.6,0.2,1.8,0.6c7.9,5.1,16.3,9.6,25,13.3
			c5.4,14.6,10.1,29.6,14,44.7h-37.7C-52.7,853.4-69.8,837.6-90.9,835.4L-90.9,835.4z"/>
		<path class="st3" d="M98.8,831.7c-2.5,1-5,1.8-7.5,2.7C43.9,850.1-8.1,843.4-50,816.3c-0.4-0.3-0.9-0.5-1.3-0.8l-0.5-0.3l-1.3-0.9
			c-42.5-28.6-69.2-75.2-72.5-126.3c-0.1-1.2-0.2-2.5-0.2-3.8v-0.2l-17.6-11.6l-0.9-0.6l6.9-13.9l12.5,8.2l9.3,6.1l5.2,3.4
			c-0.2,19.1,3.3,38,10.2,55.8c0.4,1.1,0.8,2.2,1.3,3.2c6.4,15.4,15.3,29.6,26.4,42.1c1.2,1.4,2.4,2.7,3.7,4
			c5.2,5.4,10.8,10.4,16.7,15c1.9,1.5,3.8,2.9,5.8,4.3c1.2,0.8,2.4,1.7,3.6,2.5c5,3.3,10.1,6.2,15.4,8.9c1.3,0.7,2.6,1.3,3.9,1.9
			c6.3,2.9,12.7,5.4,19.3,7.4C0,822,4.3,823.1,8.5,824c2.9,0.6,5.8,1.1,8.6,1.6c1.8,0.3,3.5,0.5,5.3,0.7c26.6,3,53.5-1.1,78-11.9
			l13.2,8.6l13.8,9.1l-10,11.8l-7.6-5L98.8,831.7z M-99.8,835.2c24.5-1.9,46.5,14.9,51.1,39h-94.7
			C-139.3,852.9-121.5,836.9-99.8,835.2L-99.8,835.2z"/>
		<path class="st1" d="M64.5,528.3c-9.4,8.4-19.7,15.8-30.7,21.9c-0.8,0.4-1.5,0.9-2.3,1.3c-6.1,3.3-12.4,6.3-18.8,9
			c-3.9,1.6-8.1,3.2-12.5,4.7l0.2-4.2c3-1.1,5.9-2.2,8.6-3.3c6.4-2.7,12.7-5.7,18.8-9c0.8-0.4,1.6-0.9,2.3-1.3
			c11-6.1,21.3-13.5,30.7-21.9c4.4-4,11.1-4.2,15.6-0.4l2.1,1.7C74,524.2,68.4,524.8,64.5,528.3z"/>
		<path class="st3" d="M57.6,561.1c-3.6,2.4-7.5,4.8-11.7,7.2c-14.7,8.4-30.4,15.1-46.6,20l0.8-23.1c4.4-1.5,8.5-3.1,12.5-4.7
			c6.4-2.7,12.7-5.7,18.8-9c0.8-0.4,1.6-0.9,2.3-1.3c11-6.1,21.3-13.5,30.7-21.9c3.8-3.5,9.5-4.1,14-1.5c0.6,0.3,1.1,0.7,1.6,1.1
			l4.1,3.4c2.2,1.9,2.5,5.2,0.7,7.4c-0.1,0.1-0.2,0.2-0.3,0.3C76.4,547.3,67.3,554.7,57.6,561.1L57.6,561.1z"/>
		<path class="st1" d="M-73.6,874.2h-0.3l0.5-0.3C-73.5,874-73.5,874.1-73.6,874.2z"/>
		<path class="st0" d="M6.8,265.2c6-3.6,11.7-7.5,17.2-11.8c9.1-6.9,17.6-14.5,25.4-22.8C34.2,219.9,17.7,211,0.3,204.3v64.7
			c1.4-0.8,2.8-1.5,4.2-2.4C5.2,266.1,6,265.7,6.8,265.2z"/>
		<path class="st1" d="M67,212.3L67,212.3c5.4-7.2,10.4-14.8,14.9-22.6c1.7-2.9,5.3-3.9,8.2-2.3l3.1,1.7c4.3,2.4,6.7,7.2,6,12.1
			l0.5-0.8c3.4-5.6,1.6-12.9-4-16.3c-0.1-0.1-0.3-0.2-0.4-0.2l-3.1-1.7c-2.9-1.6-6.5-0.6-8.2,2.3c-5.4,9.4-11.5,18.4-18.1,27
			L67,212.3L67,212.3z M4.7,270.4c6-3.6,11.7-7.5,17.3-11.7c10.5-8,20.3-17,29.1-26.7c-0.5-0.4-1.1-0.8-1.7-1.2
			c-7.9,8.2-16.4,15.8-25.4,22.7c-5.5,4.2-11.3,8.1-17.2,11.7c-0.8,0.5-1.6,0.9-2.3,1.4c-1.4,0.8-2.8,1.6-4.2,2.4v4.1
			c0.7-0.4,1.4-0.8,2.1-1.2C3.1,271.4,3.9,270.9,4.7,270.4z M94.6,241.2c3.3,3.5,6.4,7,9.1,10.3c7.5,9,14,18.7,19.5,28.9
			c0.3,0.5,0.4,1,0.5,1.6c1-1.6,1.1-3.6,0.3-5.2c-5.5-10.3-12.1-20-19.6-29c-2.7-3.3-5.8-6.8-9.1-10.3c-3.5-3.7-7.4-7.5-11.6-11.3
			l-1.9,2.6C86.6,233,90.8,237.1,94.6,241.2L94.6,241.2z M67.1,212.4L67.1,212.4L67.1,212.4z"/>
		<path class="st1" d="M65,215.1c0.7-0.9,1.3-1.8,2-2.7l-1.1-0.8c-20-14.6-42.1-26.2-65.6-34.3v3.9C23.4,189.2,45.2,200.6,65,215.1z
			"/>
		<path class="st3" d="M68.1,245.7c-2.4-2.1-4.9-4.3-7.6-6.5c-2.9-2.4-6.1-4.8-9.4-7.2c-8.9,9.8-18.6,18.7-29.1,26.7
			c-5.5,4.2-11.3,8.1-17.3,11.7c-0.8,0.5-1.6,0.9-2.3,1.4S1,272.6,0.3,273v24.6c3.7-1.8,7.6-3.9,11.6-6.2
			C32.9,279.2,51.9,263.8,68.1,245.7z M93.2,189.2l-3.1-1.7c-2.9-1.6-6.5-0.6-8.2,2.3c-4.5,7.8-9.5,15.4-14.8,22.7
			c6.1,4.6,11.7,9.2,16.7,13.7c-0.6,0.9-1.3,1.7-1.9,2.6c0,0,0.1,0,0.1,0.1l1.9-2.6c4.7-6.4,9.3-13.2,13.8-20.5
			c3.4-5.6,1.6-12.9-4-16.3C93.4,189.3,93.3,189.3,93.2,189.2z"/>
		<path class="st4" d="M67.1,212.4L67.1,212.4c-0.8,0.8-1.4,1.7-2.1,2.6c6.2,4.5,11.8,9.1,16.9,13.7c0.6-0.9,1.3-1.7,1.9-2.6
			C78.7,221.6,73.2,217,67.1,212.4L67.1,212.4z"/>
		<path class="st3" d="M51.1,231.9c3.3,2.4,6.5,4.8,9.4,7.2c2.7,2.2,5.2,4.4,7.6,6.5c2.9,2.6,5.5,5.1,7.9,7.5
			c0.6,0.6,1.3,1.3,1.9,1.9c8.8,9.1,16.5,19.1,23.1,29.8c3.1,5.1,9.4,7.1,14.8,4.8l4.9-2.1c2.2-0.9,3.5-3.3,3.1-5.6
			c-0.1-0.6-0.2-1.1-0.5-1.6c-5.5-10.3-12.1-20-19.6-28.9c-2.7-3.3-5.8-6.8-9.1-10.3c-3.8-4-8-8.2-12.7-12.4c0,0,0-0.1-0.1-0.1
			c-5.1-4.6-10.7-9.2-16.9-13.7c-19.8-14.4-41.6-25.8-64.7-33.9v23.1c17.4,6.8,33.9,15.7,49.2,26.4C50,231.1,50.6,231.5,51.1,231.9z
			"/>
		<path class="st1" d="M41.6,492.5C28.5,503,14.4,512.2-0.5,520.1v-24.9c11.6-6.8,22.6-14.6,32.9-23.2c1.8-1.5,4.4-1.8,6.6-0.8
			c0.7,0.4,1.4,0.9,1.9,1.5l2.3,2.6c4.3,4.9,3.8,12.4-1.2,16.7C41.9,492.3,41.8,492.4,41.6,492.5L41.6,492.5z"/>
		<path class="st3" d="M44.6,484.6c-14,11.2-29.1,21-45.1,29.2v-24.7c12.6-7.2,24.6-15.5,35.8-24.8c1.8-1.5,4.4-1.8,6.6-0.8
			c0.7,0.4,1.4,0.9,1.9,1.5l2.3,2.7c4.3,5,3.8,12.5-1.2,16.7C44.8,484.4,44.7,484.5,44.6,484.6L44.6,484.6z"/>
		<path class="st1" d="M0,434.3c5.6,4.4,10.6,10.1,17.4,12.3c7.2,2.3,15.4,0.2,23.3,0.2s16.2,2.1,23.3-0.2c7.4-2.4,12.8-9,19-13.6
			s14.2-7.6,18.8-13.9c4.6-6.3,5-14.7,7.4-22.1c2.3-7.2,7-14.3,7-22.3s-4.7-15.1-7-22.3c-2.4-7.4-2.9-15.9-7.4-22.1
			c-4.5-6.2-12.5-9.3-18.8-13.9c-6.2-4.6-11.6-11.1-19-13.6c-7.2-2.3-15.4-0.2-23.3-0.2s-16.2-2.1-23.3,0.2
			c-6.8,2.2-11.9,7.9-17.4,12.3V434.3z"/>
		<path class="st6" d="M111.6,365.3c0,8-4.7,15.1-7,22.3c-2.4,7.4-2.9,15.9-7.4,22.1c-4.5,6.2-12.5,9.4-18.8,13.9
			s-11.6,11.1-19,13.6c-7.2,2.3-15.4,0.2-23.3,0.2s-16.2,2.1-23.3-0.2c-4.8-1.6-8.8-5-12.7-8.3v-127c3.9-3.4,7.8-6.8,12.7-8.3
			c7.2-2.3,15.4-0.2,23.3-0.2s16.2-2.1,23.3,0.2c7.4,2.4,12.8,9,19,13.6s14.2,7.6,18.8,13.9s5,14.7,7.4,22.1
			C106.9,350.2,111.6,357.4,111.6,365.3z"/>
		<path class="st7" d="M101.2,365.3c0,36-29.2,65.2-65.2,65.2c-12.8,0-25.3-3.8-36-10.9V311.1c30-19.9,70.4-11.7,90.3,18.3
			C97.4,340,101.2,352.5,101.2,365.3z"/>
		<path class="st2" d="M91.7,365.4c0,30.8-24.9,55.7-55.7,55.7c-11.3,0-22.3-3.4-31.6-9.8c-1.5-1.1-3-2.2-4.4-3.4v-84.9
			c23.4-19.9,58.6-17,78.5,6.4c1.2,1.4,2.3,2.9,3.4,4.4C88.3,343,91.7,354,91.7,365.4z"/>
		<path class="st5" d="M91.7,365.4c0,30.8-24.9,55.7-55.7,55.7c-11.3,0-22.3-3.4-31.6-9.8c-1.7-2.4-3.2-5-4.4-7.6v-48
			c13.3-27.7,46.5-39.5,74.3-26.2c2.6,1.3,5.2,2.7,7.6,4.4C88.3,343,91.7,354.1,91.7,365.4L91.7,365.4z"/>
		<path class="st1" d="M5.6,96.1c2-4.9,7.6-7.2,12.5-5.2c0.1,0,0.2,0.1,0.3,0.1c27.9,12.6,61.1,34.2,96,70.8
			c2.6,2.8,2.5,7.2-0.2,9.8c0,0-0.1,0.1-0.1,0.1l-4.1,3.7c-0.2,0.2-0.5,0.4-0.7,0.6c-4,3-9.5,2.6-13-1
			c-13.1-13.7-27.4-26.2-42.6-37.4c-11.8-8.7-24.4-16.4-37.5-23c-3.2-1.6-6.3-3.1-9.3-4.4c-3.4-1.5-4.9-5.3-3.5-8.7L5.6,96.1z"/>
		<path class="st3" d="M8.2,92c2-4.9,7.6-7.2,12.5-5.2c0.1,0,0.2,0.1,0.3,0.1c27.8,12.7,61.1,34.2,96,70.8c2.6,2.8,2.5,7.1-0.2,9.8
			c0,0-0.1,0.1-0.1,0.1l-4,3.7c-0.2,0.2-0.5,0.4-0.7,0.6c-4,3-9.5,2.6-13-1c-13.1-13.7-27.4-26.2-42.6-37.4
			c-11.8-8.7-24.4-16.4-37.5-23c-3.2-1.6-6.3-3.1-9.3-4.4c-3.4-1.5-4.9-5.3-3.5-8.7L8.2,92z"/>
	</g>
</g>
</svg>
