<?xml version="1.0" encoding="utf-8"?>
<!-- Generator: Adobe Illustrator 25.0.0, SVG Export Plug-In . SVG Version: 6.00 Build 0)  -->
<svg version="1.1" id="Layer_1" xmlns="http://www.w3.org/2000/svg" xmlns:xlink="http://www.w3.org/1999/xlink" x="0px" y="0px"
	 viewBox="0 0 590.2 857.2" style="enable-background:new 0 0 590.2 857.2;" xml:space="preserve">
<style type="text/css">
	.st0{fill:none;}
	.st1{fill:#FFE3AC;}
	.st2{fill:#AB1300;}
	.st3{fill:#FFC043;}
	.st4{fill:#FF6937;}
	.st5{fill:#E11900;}
	.st6{fill:#FFFFFF;}
	.st7{fill:#FFD7D2;}
</style>
<g id="Layer_2_1_">
	<g id="WebLeft">
		<path class="st0" d="M84.6,539c2-2.1,1.9-5.4-0.1-7.4c-0.1-0.1-0.2-0.2-0.3-0.3l-4.1-3.4c-0.5-0.4-1-0.8-1.6-1.1l-2.1-1.7
			c-4.6-3.8-11.2-3.6-15.6,0.4c-9.4,8.4-19.7,15.7-30.7,21.9c-0.8,0.4-1.6,0.9-2.3,1.3c-6.1,3.3-12.4,6.3-18.8,9
			c-2.8,1.1-5.6,2.3-8.6,3.3l-1,27.4c16.2-4.9,31.9-11.6,46.6-20c4.2-2.4,8.1-4.9,11.7-7.2C67.3,554.7,76.4,547.3,84.6,539z
			 M208.8,821.9l-11-7.2c-2.4,1.1-4.9,1.9-7.5,2.7c2.5-0.8,5-1.7,7.5-2.7L208.8,821.9z M-26.8,667.2c0.1,1.3,0.1,2.5,0.2,3.8
			C-26.7,669.7-26.8,668.5-26.8,667.2z"/>
		<path class="st1" d="M200.3,785.6v0.9c-1.6,0.4-3.3,0.8-5,1.3C196.9,787.1,198.6,786.3,200.3,785.6L200.3,785.6z M18.1,666.4
			c-0.1-0.5-0.1-0.9-0.2-1.4c-0.2-1.8-0.4-3.6-0.7-5.4l-0.2-1.8c-0.3-2.1-0.6-4.1-0.9-6.2c0-0.1,0-0.2,0-0.3
			c-0.3-1.7-0.5-3.3-0.8-4.9l1.8-0.6c0.6,7.2,1,14.2,1.1,21.2C18.2,666.9,18.1,666.7,18.1,666.4L18.1,666.4z M65.7,660
			c0.1-0.7,0.1-1.3,0.2-2c0.1-1.5,0.3-2.9,0.4-4.3c0-0.5,0.1-1.1,0.1-1.6c0.2-1.9,0.3-3.8,0.4-5.7c0-0.3,0-0.5,0-0.8
			c0.1-1.6,0.2-3.2,0.3-4.8c0-0.4,0-0.8,0.1-1.2l2.5,0.2c-1.2,7.5-2.7,15-4.3,22.4C65.6,661.4,65.7,660.7,65.7,660L65.7,660z
			 M176.2,716.2c2.5-1.9,4.1-4.8,4.4-7.9c1.2,2,2.4,4,3.5,6.1c-16.9,11.6-32.7,24-47.2,36.2C149.3,738.2,162.4,726.7,176.2,716.2
			L176.2,716.2z"/>
		<path class="st2" d="M150.9,676.4c-15.7,13.1-30.1,27.6-43.2,43.3c14.9-24.2,33.8-48.9,57.5-69.7l0.1-0.1l1.9,2.7
			c-3.8,3.8-7.8,7.3-12,10.7C151.3,666.3,149.6,671.5,150.9,676.4L150.9,676.4z M39.5,688.2c1-20.7,0.1-41.5-2.9-62
			c-0.7-5.1-4.7-9.2-9.8-10c-0.2-2.7-0.5-5-0.7-7.1c-0.7-5.9,3.4-11.4,9.3-12.4l4.5-0.8c2-0.3,4,0.3,5.4,1.8
			C47,628,45.1,658.4,39.5,688.2L39.5,688.2z M231.8,762.4l-1-3.1c-1.2-3.6-5-5.5-8.6-4.5l-2.2,0.7c-10.5,3.3-20.8,7.1-30.9,11.5
			l1-0.6l2.1-1.2c1.2-0.7,2.5-1.3,3.8-2l1.6-0.8c2.3-1.2,4.7-2.3,7-3.4c12.9-6.2,26.4-11.1,40.3-14.9c0.5-0.1,0.9-0.3,1.3-0.6l2,8.4
			c1.4,5.9-2.2,11.8-8,13.3c-2.6,0.7-5.3,1.5-7.9,2.2C232.4,765.7,232.3,764,231.8,762.4L231.8,762.4z M110.4,677.2l0.8-2.4
			c0.2-0.6,0.4-1.2,0.6-1.8l0.8-2.7l0.6-1.8c0.3-0.9,0.5-1.7,0.8-2.6l0.5-1.8c0.3-0.9,0.5-1.7,0.8-2.6c0.2-0.6,0.3-1.1,0.5-1.7
			c0.1-0.2,0.1-0.4,0.2-0.7c1.6-5.5,3.1-10.9,4.4-16c0.1-0.5,0.2-1,0.4-1.5c6.6-10,12.3-17.9,16.4-23.5c3.9-5.3,11.3-6.4,16.6-2.5
			c0.1,0.1,0.2,0.2,0.4,0.3l2,1.6c3,2.4,3.5,6.7,1.2,9.7c-0.5,0.6-1,1.3-1.5,2.1C138.9,643.8,123.7,659.7,110.4,677.2z"/>
		<path class="st2" d="M175.4,696.1c-1.6-2.2-4.7-2.7-7-1.1c0,0,0,0,0,0c-13.3,9.8-26,20.4-38,31.7c5.3-6,11-12,17-17.9
			c15.8-15.6,33.5-29.1,52.6-40.4c4.6-1.3,9.5,0.9,11.6,5.2l2.9,6c1.2,2.4,0.2,5.3-2.2,6.5c-11.4,5.7-22,11.7-32,17.9
			c-0.3-1.3-0.9-2.5-1.7-3.5L175.4,696.1z M230,720.7l2.4,4.4c-24.4,7.4-47.6,18.1-69,31.8c18.8-15.2,38.6-29.2,59.3-41.7
			c2,0.5,3.8,1.5,5.3,2.9C228.8,718.9,229.5,719.8,230,720.7L230,720.7z M101.8,627.1c-5.3,22.6-12.1,44.8-20.5,66.5
			c-1,2.5-2,5.1-3.1,7.7c8-27,13.5-54.7,16.4-82.7c0.6-6.2-3.9-11.8-10.1-12.4c-0.2,0-0.4,0-0.6,0l-2.4-0.1c0.1-2.6,0.2-4.9,0.3-7
			c0.2-5.6,4.9-10.1,10.5-10h4.9c2.5,0,4.7,1.5,5.7,3.7c0.5,0.9,0.7,1.9,0.6,2.9C103.5,602.4,103,613.5,101.8,627.1z"/>
		<path class="st3" d="M115.9,659.3c-0.1,0.1-24.2,21.7-39.5,47.9c0.6-2,1.2-4,1.8-6c1.1-2.6,2.1-5.1,3.1-7.7
			c8.4-21.6,15.2-43.9,20.5-66.5c3.5-15,5.7-27.4,7-35.8c1.1-6.7,7.1-11.4,13.9-10.8l2.4,0.2c3.7,0.4,6.5,3.7,6.1,7.4
			c0,0.1,0,0.2,0,0.2c-2.4,18-5.9,35.8-10.4,53.4c-0.1,0.5-0.2,1-0.4,1.5C118.9,648.7,117.5,654,115.9,659.3L115.9,659.3z
			 M112.6,670.4l0.6-1.8L112.6,670.4z M113.9,666.1l0.5-1.8L113.9,666.1z M111.2,674.9c0.2-0.6,0.4-1.2,0.6-1.8
			C111.5,673.7,111.4,674.2,111.2,674.9z M115.2,661.7c0.2-0.6,0.3-1.1,0.5-1.7C115.6,660.5,115.4,661.1,115.2,661.7z M-15.1,634.5
			c-0.1,7-0.7,13.9-1.6,20.8l-9.3-6.1l-0.1-0.2c-1.4-5.5,1.6-11.2,7-13.1l9.6-3.3L-15.1,634.5z"/>
		<path class="st4" d="M-9.4,632.5c4.6,21.8,9,51.3,8.1,82c-6.9-17.8-10.4-36.7-10.2-55.8l-5.2-3.5c1-6.9,1.5-13.8,1.6-20.8
			L-9.4,632.5z"/>
		<path class="st3" d="M181.9,629v-0.8C181.9,628.5,181.9,628.8,181.9,629z M181.7,635.1c0-0.6,0-1.1,0.1-1.7
			C181.7,634,181.7,634.6,181.7,635.1z M35,725.9c2.3-12.5,3.8-25.1,4.4-37.7c5.6-29.8,7.6-60.2,5.8-90.5c-0.3-4.6-0.6-8.5-0.9-11.8
			c-0.5-5.5,3.3-10.4,8.7-11.2l0.9-0.1l4.2-0.7c3.5-0.6,6.8,1.8,7.4,5.3c0,0.1,0,0.2,0,0.3c0.3,3,0.7,6.8,1.1,11.4
			c0.7,8.5,1.2,19.8,1.1,32.9C67.5,625.1,59.6,675.4,35,725.9L35,725.9z M65.7,660c0.1-0.7,0.1-1.3,0.2-2
			C65.9,658.7,65.8,659.4,65.7,660z M103.1,646.4v-0.8C103.1,645.8,103.1,646.1,103.1,646.4z M181.5,639v0.5l-0.1,1.2L181.5,639z"/>
		<path class="st4" d="M67.2,640.8c-0.1,1.6-0.2,3.2-0.3,4.8c0,0.3,0,0.5,0,0.8c-0.1,1.9-0.3,3.8-0.4,5.7c0,0.5-0.1,1.1-0.1,1.6
			c-0.1,1.4-0.2,2.9-0.4,4.3c-0.1,0.7-0.1,1.3-0.2,2s-0.1,1.4-0.2,2.1C59.2,691.2,48.4,728,30,763.8c-1.3-1.3-2.5-2.7-3.7-4
			c3.7-11.1,6.6-22.5,8.7-34c24.5-50.4,32.5-100.8,32.7-102.1c0,1.5,0,3-0.1,4.5v0.8c0,1.5-0.1,2.9-0.1,4.4l-0.1,1.7
			c0,1.3-0.1,2.5-0.2,3.8L67.2,640.8z"/>
		<path class="st3" d="M51,643.6c-0.3-1.7-0.6-3.3-0.9-4.9C50.4,640.2,50.7,641.9,51,643.6z M127.9,637.4c-0.4-2-0.8-3.9-1.1-5.8
			C127.1,633.5,127.5,635.4,127.9,637.4z M17.9,665c-0.2-1.8-0.4-3.6-0.7-5.4C17.5,661.4,17.7,663.2,17.9,665z M15.1,645.1
			c0.1,0.5,0.2,0.9,0.2,1.4c0.3,1.6,0.5,3.3,0.8,4.9C15.8,649.3,15.4,647.2,15.1,645.1z M0,717.7c-0.4-1.1-0.9-2.2-1.3-3.2
			c0.9-30.6-3.5-60.2-8.1-82c-0.8-3.8-1.6-7.3-2.4-10.6c-1.5-6.2,2.3-12.5,8.4-14.2l3.4-0.9c3.4-0.9,6.9,1.1,7.8,4.5
			c0,0,0,0.1,0,0.1c1.5,5.9,3.1,12.7,4.6,20C12.5,631.8,11.9,690.6,0,717.7L0,717.7z M18.2,667.1L18.2,667.1l-0.1-0.7
			C18.1,666.7,18.2,666.9,18.2,667.1z M17,657.8c-0.3-2.1-0.6-4.1-0.9-6.2C16.4,653.7,16.7,655.8,17,657.8z"/>
		<path class="st4" d="M16.1,651.4c0,0.1,0,0.2,0,0.3c0.3,2,0.6,4.1,0.9,6.2l0.2,1.8c0.2,1.8,0.5,3.6,0.7,5.4
			c0.1,0.5,0.1,0.9,0.2,1.4l0.1,0.8c0.5,23.8-2.2,47.6-8,70.7c-3.9-6.5-7.3-13.3-10.2-20.2c11.9-27.1,12.5-85.9,12.5-86.3
			c0,0.1,0,0.1,0,0.2c0.4,1.9,0.8,3.8,1.1,5.8c0.1,0.4,0.1,0.8,0.2,1.3c0.3,1.6,0.6,3.2,0.9,4.9l0.3,1.5
			C15.4,647.2,15.8,649.3,16.1,651.4L16.1,651.4z"/>
		<path class="st3" d="M204.5,759l1.2-0.6c-6.4,0.3-39.4,10.1-65.6,18.2c7.6-6.7,15.4-13.2,23.2-19.6c21.4-13.8,44.6-24.5,69-31.8
			l1.5-0.5c5.6-1.6,11.5,1.6,13.2,7.2c0,0.2,0.1,0.3,0.1,0.5l1.2,4.8l0.2,0.6c0.1,0.3,0.1,0.7,0.1,1c0.1,1.9-0.9,3.8-2.5,4.8
			c-0.4,0.3-0.8,0.4-1.3,0.6C230.9,747.8,217.4,752.8,204.5,759L204.5,759z M190,766.4l2.1-1.2L190,766.4z M195.9,763.2l1.6-0.8
			L195.9,763.2z"/>
		<path class="st4" d="M140.1,776.5c26.2-8.1,59.2-17.8,65.6-18.2l-1.2,0.6c-2.4,1.1-4.7,2.3-7,3.4l-1.6,0.8c-1.3,0.7-2.5,1.3-3.8,2
			l-2.1,1.2l-1,0.6c-25.7,11.2-50.1,25.2-72.8,41.7c-2.9-0.4-5.8-1-8.6-1.6C117.1,797.5,128,787.2,140.1,776.5z"/>
		<path class="st3" d="M147.5,708.7c-11.9,6.2-33.4,18.3-52.2,32.5c3.8-7.1,7.9-14.3,12.3-21.6c13.1-15.7,27.5-30.2,43.2-43.3
			c16.7-13.9,34.9-25.8,54.4-35.4c1.1-0.5,2.3-1.1,3.4-1.6c2.8-1.3,6.1-0.1,7.4,2.7c0,0,0,0.1,0.1,0.1l1.7,3.9
			c2.6,5.9,0.1,12.7-5.6,15.6c-4.2,2.1-8.2,4.3-12.2,6.7C180.9,679.6,163.3,693.2,147.5,708.7L147.5,708.7z"/>
		<path class="st4" d="M95.3,741.2c18.8-14.2,40.3-26.3,52.2-32.5c-5.9,5.8-11.6,11.7-17,17.9c-21.3,20.1-40.7,42.1-58.1,65.6
			C79,774.8,86.6,757.7,95.3,741.2z"/>
		<path class="st3" d="M36.6,626.2c2.9,20.5,3.9,41.3,2.9,62c-0.7,12.7-2.2,25.3-4.5,37.7c-2.1,11.5-5.1,22.8-8.7,33.9
			c-6-6.8-11.4-14.1-16.1-21.8c5.8-23.1,8.5-46.9,8-70.7v-0.1c-0.1-7-0.5-14.1-1.1-21.2c-0.7-7.5-1.6-15.1-2.8-22.8
			c-0.4-2.6,1.2-5.1,3.8-5.7l5.6-1.3c1-0.1,2.1-0.1,3.1,0C31.9,617,35.9,621,36.6,626.2L36.6,626.2z M163.3,757
			c-7.9,6.4-15.7,12.9-23.2,19.6c-12,10.6-23,21-32.5,30.5c-4.3-0.9-8.5-2-12.7-3.3c13.8-19.7,24.9-35.2,24.9-35.2
			c5.5-6.1,11.2-12.1,17.2-18.1c14.5-12.2,30.3-24.5,47.2-36.2c12.1-8.3,24.8-16.3,37.8-23.7c5.1-2.8,11.5-1,14.3,4.1
			c0,0.1,0.1,0.1,0.1,0.2l2.8,5.3c1.3,2.4,0.3,5.4-2,6.7c-4.9,2.7-9.7,5.4-14.5,8.3C202,727.8,182.1,741.7,163.3,757L163.3,757z"/>
		<path class="st3" d="M176.2,716.2c-13.8,10.6-27,22.1-39.3,34.3c-6,6-11.8,12-17.2,18.1c-16.2,6.8-31.1,16.2-44.2,27.8
			c-1.3-0.6-2.6-1.2-3.9-1.9c0.3-0.7,0.5-1.5,0.8-2.2c17.4-23.5,36.8-45.5,58.1-65.6c12-11.3,24.7-21.9,38-31.7
			c2.2-1.6,5.4-1.1,7,1.1c0,0,0,0,0,0l3.2,4.5c0.8,1.1,1.3,2.2,1.7,3.5C181.6,708.6,180,713.4,176.2,716.2L176.2,716.2z"/>
		<path class="st4" d="M119.7,768.5c0,0-11.1,15.5-24.9,35.2c-6.6-2-13.1-4.5-19.3-7.4C88.6,784.7,103.5,775.3,119.7,768.5z
			 M47,798.6l-1.1-1.3l1.3,0.9C47.1,798.2,47.1,798.4,47,798.6z M76.4,707.2c15.3-26.3,39.4-47.8,39.5-47.9
			c-0.1,0.2-0.1,0.4-0.2,0.7c-0.2,0.6-0.3,1.1-0.5,1.7c-0.2,0.8-0.5,1.7-0.8,2.6l-0.5,1.8c-0.3,0.8-0.5,1.7-0.8,2.6l-0.6,1.8
			l-0.8,2.7c-0.2,0.6-0.4,1.2-0.6,1.8l-0.8,2.4C81.8,714.3,63.5,754,52.5,783.1c-2-1.4-3.9-2.8-5.8-4.3
			C58.9,756,68.8,732,76.4,707.2L76.4,707.2z"/>
		<path class="st3" d="M94.6,618.6c-3,28-8.5,55.7-16.4,82.7c-0.6,2-1.2,4-1.8,6C68.8,732,58.9,756,46.7,778.8
			c-5.9-4.6-11.5-9.6-16.7-15c18.4-35.8,29.2-72.6,35.5-101.7c1.6-7.4,3-14.9,4.3-22.4c2.3-13.7,3.4-24.1,3.9-29.6
			c0.2-2.4,2.3-4.3,4.8-4.2l3.1,0.2l2.4,0.1c6.2,0.3,11.1,5.6,10.8,11.8C94.7,618.1,94.7,618.4,94.6,618.6L94.6,618.6z M107.7,719.7
			c-4.5,7.3-8.6,14.5-12.3,21.6c-8.7,16.5-16.4,33.5-22.9,51c-0.3,0.7-0.6,1.5-0.8,2.2c-5.3-2.6-10.5-5.6-15.4-8.9
			c-1.2-0.8-2.4-1.6-3.6-2.5c10.9-29.1,29.3-68.7,57.9-105.9c13.3-17.5,28.5-33.5,45.4-47.7l0.1-0.1c2.4-2,5.9-1.7,7.8,0.7
			c0,0,0.1,0.1,0.1,0.1l2.8,3.4c3.9,4.9,3.4,12-1.3,16.2l-0.1,0.1C141.5,670.8,122.6,695.4,107.7,719.7L107.7,719.7z M47.7,798.5
			c0.4,0.3,0.9,0.6,1.3,0.8c-1.2-0.4-1.8-0.6-1.8-0.6l-0.1-0.2c0-0.1,0.1-0.3,0.1-0.4L47.7,798.5z M128.7,804.5l-7.3,4.8
			c-1.8-0.2-3.5-0.4-5.3-0.7c22.7-16.5,47.1-30.5,72.8-41.7c10.1-4.3,20.4-8.2,30.9-11.5l2.2-0.7c3.6-1.1,7.4,0.9,8.6,4.5l1,3.2
			c2,6-1.3,12.4-7.2,14.3c0,0-0.1,0-0.1,0c-1.2,0.4-2.2,0.7-2.9,0.9c-4.3,1.4-8.5,3-12.8,4.6C191.3,781.8,161.8,791.8,128.7,804.5
			L128.7,804.5z"/>
		<path class="st4" d="M138.4,810.2c-5.6,0-11.3-0.3-16.9-1l7.3-4.8c33.1-12.7,62.5-22.7,80-22.3c-2.8,1.1-5.6,2.2-8.4,3.4
			c-1.7,0.7-3.4,1.4-5.1,2.2C175.5,793.1,156.4,800.6,138.4,810.2z"/>
		<path class="st3" d="M138.4,810.2c18-9.6,37.1-17.2,56.9-22.4c1.7-0.5,3.4-0.9,5-1.3c5.2-1.3,9.8-2.2,13.6-2.9
			c6.6-1.2,13,3.2,14.2,9.9c0.1,0.4,0.1,0.8,0.2,1.2l0.3,3.5c0.2,2.8-1.8,5.3-4.6,5.7c-2.7,0.4-6.6,1-11.2,2l-13.2-8.6
			C180.2,805.8,159.4,810.2,138.4,810.2z"/>
		<path class="st1" d="M6.6,655.5l-0.9-0.6l-14.9,30.2l-42.3,85.5l-2.2-20L2.8,646.6l9.7-5.7l-6.9,13.9L6.6,655.5z M5.1,783.7
			l2.6,22.7l-25.1,50.8H-35L-0.6,794L5.1,783.7z"/>
		<path class="st4" d="M23.1,750.6l2.2,20L7.7,806.4l-2.6-22.7L23.1,750.6z"/>
		<path class="st5" d="M74,812.6c36.9,15.7,78.3,17.4,116.3,4.8c2.6-0.7,5.1-1.6,7.5-2.7l11,7.2l7.6,5l-25.8,30.3H88
			C84.1,842.1,79.4,827.2,74,812.6z M-120.3,806.4l17.7-35.8l42.3-85.5l14.9-30.2l-4.7,9.5C-16.9,718-3.5,770.9-0.8,818.2
			c-21.7,1.7-39.5,17.7-43.6,39h-101.1L-120.3,806.4z"/>
		<path class="st4" d="M8.1,818.4c-2.9-0.3-5.9-0.3-8.9-0.1c-2.7-47.3-16-100.3-49.3-153.9l4.7-9.5l0.9,0.6l17.6,11.6v0.2
			c0,1.2,0.1,2.5,0.2,3.8c3.3,51,30.1,97.7,72.5,126.2l1.1,1.3l0.1,0.2c0,0,0.6,0.2,1.8,0.6c7.9,5.1,16.3,9.6,25,13.3
			c5.4,14.6,10.1,29.6,14,44.7H50.3C46.3,836.4,29.2,820.6,8.1,818.4L8.1,818.4z"/>
		<path class="st3" d="M197.8,814.7c-2.5,1-5,1.8-7.5,2.7c-47.4,15.7-99.4,9.1-141.3-18.1c-0.4-0.3-0.9-0.5-1.3-0.8l-0.5-0.3
			l-1.3-0.9C3.5,768.7-23.3,722.1-26.6,671c-0.1-1.2-0.2-2.5-0.2-3.8v-0.2l-17.6-11.6l-0.9-0.6l6.9-13.9l12.5,8.2l9.3,6.1l5.2,3.4
			c-0.2,19.1,3.3,38,10.2,55.8c0.4,1.1,0.8,2.2,1.3,3.2c6.4,15.4,15.3,29.6,26.4,42.1c1.2,1.4,2.4,2.7,3.7,4
			c5.2,5.4,10.8,10.4,16.7,15c1.9,1.5,3.8,2.9,5.8,4.3c1.2,0.8,2.4,1.7,3.6,2.5c5,3.3,10.1,6.2,15.4,8.9c1.3,0.7,2.6,1.3,3.9,1.9
			c6.3,2.9,12.7,5.4,19.3,7.4c4.2,1.3,8.5,2.4,12.7,3.3c2.9,0.6,5.8,1.1,8.6,1.6c1.8,0.3,3.5,0.5,5.3,0.7c26.6,3,53.5-1.1,78-11.9
			l13.2,8.6l13.8,9.1l-10,11.8l-7.6-5L197.8,814.7z M-0.8,818.2c24.5-1.9,46.5,14.9,51.1,39h-94.7C-40.3,835.9-22.5,819.9-0.8,818.2
			L-0.8,818.2z"/>
		<path class="st1" d="M64.5,528.3c-9.4,8.4-19.7,15.8-30.7,21.9c-0.8,0.4-1.5,0.9-2.3,1.3c-6.1,3.3-12.4,6.3-18.8,9
			c-3.9,1.6-8.1,3.2-12.5,4.7l0.2-4.2c3-1.1,5.9-2.2,8.6-3.3c6.4-2.7,12.7-5.7,18.8-9c0.8-0.4,1.6-0.9,2.3-1.3
			c11-6.1,21.3-13.5,30.7-21.9c4.4-4,11.1-4.2,15.6-0.4l2.1,1.7C74,524.2,68.4,524.8,64.5,528.3z"/>
		<path class="st3" d="M57.6,561.1c-3.6,2.4-7.5,4.8-11.7,7.2c-14.7,8.4-30.4,15.1-46.6,20l0.8-23.1c4.4-1.5,8.5-3.1,12.5-4.7
			c6.4-2.7,12.7-5.7,18.8-9c0.8-0.4,1.6-0.9,2.3-1.3c11-6.1,21.3-13.5,30.7-21.9c3.8-3.5,9.5-4.1,14-1.5c0.6,0.3,1.1,0.7,1.6,1.1
			l4.1,3.4c2.2,1.9,2.5,5.2,0.7,7.4c-0.1,0.1-0.2,0.2-0.3,0.3C76.4,547.3,67.3,554.7,57.6,561.1L57.6,561.1z"/>
		<path class="st1" d="M25.4,857.2h-0.3l0.5-0.3C25.5,857,25.5,857.1,25.4,857.2z"/>
		<path class="st0" d="M6.8,265.2c6-3.6,11.7-7.5,17.2-11.8c9.1-6.9,17.6-14.5,25.4-22.8C34.2,219.9,17.7,211,0.3,204.3v64.7
			c1.4-0.8,2.8-1.5,4.2-2.4C5.2,266.1,6,265.7,6.8,265.2z"/>
		<path class="st1" d="M67,212.3L67,212.3c5.4-7.2,10.4-14.8,14.9-22.6c1.7-2.9,5.3-3.9,8.2-2.3l3.1,1.7c4.3,2.4,6.7,7.2,6,12.1
			l0.5-0.8c3.4-5.6,1.6-12.9-4-16.3c-0.1-0.1-0.3-0.2-0.4-0.2l-3.1-1.7c-2.9-1.6-6.5-0.6-8.2,2.3c-5.4,9.4-11.5,18.4-18.1,27
			L67,212.3L67,212.3z M4.7,270.4c6-3.6,11.7-7.5,17.3-11.7c10.5-8,20.3-17,29.1-26.7c-0.5-0.4-1.1-0.8-1.7-1.2
			c-7.9,8.2-16.4,15.8-25.4,22.7c-5.5,4.2-11.3,8.1-17.2,11.7c-0.8,0.5-1.6,0.9-2.3,1.4c-1.4,0.8-2.8,1.6-4.2,2.4v4.1
			c0.7-0.4,1.4-0.8,2.1-1.2C3.1,271.4,3.9,270.9,4.7,270.4z M94.6,241.2c3.3,3.5,6.4,7,9.1,10.3c7.5,9,14,18.7,19.5,28.9
			c0.3,0.5,0.4,1,0.5,1.6c1-1.6,1.1-3.6,0.3-5.2c-5.5-10.3-12.1-20-19.6-29c-2.7-3.3-5.8-6.8-9.1-10.3c-3.5-3.7-7.4-7.5-11.6-11.3
			l-1.9,2.6C86.6,233,90.8,237.1,94.6,241.2L94.6,241.2z M67.1,212.4L67.1,212.4L67.1,212.4z"/>
		<path class="st1" d="M65,215.1c0.7-0.9,1.3-1.8,2-2.7l-1.1-0.8c-20-14.6-42.1-26.2-65.6-34.3v3.9C23.4,189.2,45.2,200.6,65,215.1z
			"/>
		<path class="st3" d="M68.1,245.7c-2.4-2.1-4.9-4.3-7.6-6.5c-2.9-2.4-6.1-4.8-9.4-7.2c-8.9,9.8-18.6,18.7-29.1,26.7
			c-5.5,4.2-11.3,8.1-17.3,11.7c-0.8,0.5-1.6,0.9-2.3,1.4S1,272.6,0.3,273v24.6c3.7-1.8,7.6-3.9,11.6-6.2
			C32.9,279.2,51.9,263.8,68.1,245.7z M93.2,189.2l-3.1-1.7c-2.9-1.6-6.5-0.6-8.2,2.3c-4.5,7.8-9.5,15.4-14.8,22.7
			c6.1,4.6,11.7,9.2,16.7,13.7c-0.6,0.9-1.3,1.7-1.9,2.6c0,0,0.1,0,0.1,0.1l1.9-2.6c4.7-6.4,9.3-13.2,13.8-20.5
			c3.4-5.6,1.6-12.9-4-16.3C93.4,189.3,93.3,189.3,93.2,189.2z"/>
		<path class="st4" d="M67.1,212.4L67.1,212.4c-0.8,0.8-1.4,1.7-2.1,2.6c6.2,4.5,11.8,9.1,16.9,13.7c0.6-0.9,1.3-1.7,1.9-2.6
			C78.7,221.6,73.2,217,67.1,212.4L67.1,212.4z"/>
		<path class="st3" d="M51.1,231.9c3.3,2.4,6.5,4.8,9.4,7.2c2.7,2.2,5.2,4.4,7.6,6.5c2.9,2.6,5.5,5.1,7.9,7.5
			c0.6,0.6,1.3,1.3,1.9,1.9c8.8,9.1,16.5,19.1,23.1,29.8c3.1,5.1,9.4,7.1,14.8,4.8l4.9-2.1c2.2-0.9,3.5-3.3,3.1-5.6
			c-0.1-0.6-0.2-1.1-0.5-1.6c-5.5-10.3-12.1-20-19.6-28.9c-2.7-3.3-5.8-6.8-9.1-10.3c-3.8-4-8-8.2-12.7-12.4c0,0,0-0.1-0.1-0.1
			c-5.1-4.6-10.7-9.2-16.9-13.7c-19.8-14.4-41.6-25.8-64.7-33.9v23.1c17.4,6.8,33.9,15.7,49.2,26.4C50,231.1,50.6,231.5,51.1,231.9z
			"/>
		<path class="st1" d="M41.6,492.5C28.5,503,14.4,512.2-0.5,520.1v-24.9c11.6-6.8,22.6-14.6,32.9-23.2c1.8-1.5,4.4-1.8,6.6-0.8
			c0.7,0.4,1.4,0.9,1.9,1.5l2.3,2.6c4.3,4.9,3.8,12.4-1.2,16.7C41.9,492.3,41.8,492.4,41.6,492.5L41.6,492.5z"/>
		<path class="st3" d="M44.6,484.6c-14,11.2-29.1,21-45.1,29.2v-24.7c12.6-7.2,24.6-15.5,35.8-24.8c1.8-1.5,4.4-1.8,6.6-0.8
			c0.7,0.4,1.4,0.9,1.9,1.5l2.3,2.7c4.3,5,3.8,12.5-1.2,16.7C44.8,484.4,44.7,484.5,44.6,484.6L44.6,484.6z"/>
		<path class="st1" d="M0,434.3c5.6,4.4,10.6,10.1,17.4,12.3c7.2,2.3,15.4,0.2,23.3,0.2s16.2,2.1,23.3-0.2c7.4-2.4,12.8-9,19-13.6
			s14.2-7.6,18.8-13.9c4.6-6.3,5-14.7,7.4-22.1c2.3-7.2,7-14.3,7-22.3s-4.7-15.1-7-22.3c-2.4-7.4-2.9-15.9-7.4-22.1
			c-4.5-6.2-12.5-9.3-18.8-13.9c-6.2-4.6-11.6-11.1-19-13.6c-7.2-2.3-15.4-0.2-23.3-0.2s-16.2-2.1-23.3,0.2
			c-6.8,2.2-11.9,7.9-17.4,12.3V434.3z"/>
		<path class="st6" d="M111.6,365.3c0,8-4.7,15.1-7,22.3c-2.4,7.4-2.9,15.9-7.4,22.1c-4.5,6.2-12.5,9.4-18.8,13.9
			s-11.6,11.1-19,13.6c-7.2,2.3-15.4,0.2-23.3,0.2s-16.2,2.1-23.3-0.2c-4.8-1.6-8.8-5-12.7-8.3v-127c3.9-3.4,7.8-6.8,12.7-8.3
			c7.2-2.3,15.4-0.2,23.3-0.2s16.2-2.1,23.3,0.2c7.4,2.4,12.8,9,19,13.6s14.2,7.6,18.8,13.9s5,14.7,7.4,22.1
			C106.9,350.2,111.6,357.4,111.6,365.3z"/>
		<path class="st7" d="M101.2,365.3c0,36-29.2,65.2-65.2,65.2c-12.8,0-25.3-3.8-36-10.9V311.1c30-19.9,70.4-11.7,90.3,18.3
			C97.4,340,101.2,352.5,101.2,365.3z"/>
		<path class="st2" d="M91.7,365.4c0,30.8-24.9,55.7-55.7,55.7c-11.3,0-22.3-3.4-31.6-9.8c-1.5-1.1-3-2.2-4.4-3.4v-84.9
			c23.4-19.9,58.6-17,78.5,6.4c1.2,1.4,2.3,2.9,3.4,4.4C88.3,343,91.7,354,91.7,365.4z"/>
		<path class="st5" d="M91.7,365.4c0,30.8-24.9,55.7-55.7,55.7c-11.3,0-22.3-3.4-31.6-9.8c-1.7-2.4-3.2-5-4.4-7.6v-48
			c13.3-27.7,46.5-39.5,74.3-26.2c2.6,1.3,5.2,2.7,7.6,4.4C88.3,343,91.7,354.1,91.7,365.4L91.7,365.4z"/>
		<path class="st1" d="M5.6,96.1c2-4.9,7.6-7.2,12.5-5.2c0.1,0,0.2,0.1,0.3,0.1c27.9,12.6,61.1,34.2,96,70.8
			c2.6,2.8,2.5,7.2-0.2,9.8c0,0-0.1,0.1-0.1,0.1l-4.1,3.7c-0.2,0.2-0.5,0.4-0.7,0.6c-4,3-9.5,2.6-13-1
			c-13.1-13.7-27.4-26.2-42.6-37.4c-11.8-8.7-24.4-16.4-37.5-23c-3.2-1.6-6.3-3.1-9.3-4.4c-3.4-1.5-4.9-5.3-3.5-8.7L5.6,96.1z"/>
		<path class="st3" d="M8.2,92c2-4.9,7.6-7.2,12.5-5.2c0.1,0,0.2,0.1,0.3,0.1c27.8,12.7,61.1,34.2,96,70.8c2.6,2.8,2.5,7.1-0.2,9.8
			c0,0-0.1,0.1-0.1,0.1l-4,3.7c-0.2,0.2-0.5,0.4-0.7,0.6c-4,3-9.5,2.6-13-1c-13.1-13.7-27.4-26.2-42.6-37.4
			c-11.8-8.7-24.4-16.4-37.5-23c-3.2-1.6-6.3-3.1-9.3-4.4c-3.4-1.5-4.9-5.3-3.5-8.7L8.2,92z"/>
	</g>
</g>
</svg>
