<?xml version="1.0"?>
<svg xmlns="http://www.w3.org/2000/svg" xmlns:xlink="http://www.w3.org/1999/xlink" xmlns:svgjs="http://svgjs.com/svgjs" version="1.1" width="512" height="512" x="0" y="0" viewBox="0 0 512 512" style="enable-background:new 0 0 512 512" xml:space="preserve" class=""><g><path xmlns="http://www.w3.org/2000/svg" d="m178.631 333.37c55.833 55.833 131.531 88.521 219.074 94.688l52.305-184.632c-15.856-4.108-30.432-12.36-42.189-24.117-36.086-36.086-36.086-94.804 0-130.891 14.402-14.403 32.657-23.475 52.791-26.235 13.337-1.828 27.01-.676 39.827 3.235l10.715-37.822c4.044-14.278-6.989-27.596-20.742-27.596-1.959 0-3.973.27-6.007.846l-400.464 113.449c6.168 87.544 38.856 163.242 94.69 219.075zm189.371-38.336c5.259 6.401 4.332 15.854-2.069 21.112l-45.836 37.651c-2.791 2.292-6.163 3.41-9.513 3.41-4.335 0-8.634-1.869-11.6-5.479-5.259-6.401-4.332-15.854 2.069-21.112l45.836-37.651c6.403-5.259 15.855-4.333 21.113 2.069zm-196.999-119.988 22.781-7.543c4.049-30.436 19.5-37.614 28.964-39.089 41.021-6.39 79.617 21.785 86.013 62.818 6.394 41.033-21.786 79.618-62.819 86.013-1.347.21-2.845.347-4.461.347-9.738 0-23.771-4.96-35.022-28.769l-23.996-.253c-13.044-.137-23.97-9.592-25.978-22.482l-3.386-21.721c-2.008-12.89 5.521-25.22 17.904-29.321z" fill="#ffac11" data-original="#000000" style="" class=""/><path xmlns="http://www.w3.org/2000/svg" d="m157.418 354.583c-59.684-59.683-95.153-139.714-102.932-231.943l-38.726 10.971c-9.717 2.753-16.198 11.853-15.736 21.942 8.812 192.839 163.586 347.613 356.425 356.425.337.015.676.023 1.01.023 9.681 0 18.271-6.368 20.931-15.759l10.971-38.727c-92.23-7.78-172.261-43.249-231.943-102.932z" fill="#ffac11" data-original="#000000" style="" class=""/><path xmlns="http://www.w3.org/2000/svg" d="m183.188 202.613 2.492 15.989 30.984.327c6.247.066 11.799 3.997 13.937 9.867 4.752 13.05 9.517 17.822 11.186 18.732 24.436-4.064 41.155-27.144 37.332-51.676-3.822-24.533-26.768-41.435-51.287-37.865-1.313 1.375-4.399 7.371-4.955 21.248-.25 6.242-4.343 11.676-10.273 13.64z" fill="#ffac11" data-original="#000000" style="" class=""/><path xmlns="http://www.w3.org/2000/svg" d="m429.034 109.631c-24.389 24.39-24.389 64.075 0 88.465 8.103 8.103 18.182 13.756 29.145 16.473l34.078-120.295c-6.141-1.94-12.501-2.893-18.84-2.893-16.274 0-32.41 6.277-44.383 18.25z" fill="#ffac11" data-original="#000000" style="" class=""/></g></svg>
